<?xml version="1.0" encoding="utf-8"?>
<!-- Generator: Adobe Illustrator 18.1.1, SVG Export Plug-In . SVG Version: 6.00 Build 0)  -->
<svg version="1.1" id="Layer_1" xmlns="http://www.w3.org/2000/svg" xmlns:xlink="http://www.w3.org/1999/xlink" x="0px" y="0px"
	 viewBox="0 0 48 48" enable-background="new 0 0 48 48" xml:space="preserve">
<g id="icon_7_" display="none">
	<path display="inline" fill="#666E7A" d="M34.1,28.9h-16c-1.8,0-3.3-1.4-3.4-3.1L9.7,9.6h-4C4.8,9.6,4,8.8,4,7.8s0.8-1.8,1.8-1.8
		h5.3c0.8,0,1.5,0.5,1.7,1.3l5.3,17.7c0,0.2,0.1,0.3,0.1,0.5l15.9-0.1c0-0.2-0.1-0.2,0-0.5l2.9-10.2H23.4c-1,0-1.8-0.8-1.8-1.8
		s0.8-1.8,1.8-1.8h15.9c0.6,0,1.1,0.3,1.4,0.7c0.3,0.3,0.5,1,0.3,1.5l-3.5,12.2C37.3,27.5,35.8,28.9,34.1,28.9z"/>
	<path display="inline" fill="#666E7A" d="M12.9,36.7c-0.5-2.5,1.7-4.6,4.1-4.1c1.4,0.3,2.5,1.4,2.9,2.9c0.5,2.5-1.7,4.6-4.1,4.1
		C14.3,39.2,13.1,38.1,12.9,36.7z"/>
	<path display="inline" fill="#666E7A" d="M32.2,36.7c-0.5-2.5,1.7-4.6,4.1-4.1c1.4,0.3,2.5,1.4,2.7,2.9c0.5,2.5-1.7,4.6-4.1,4.1
		C33.6,39.2,32.5,38.1,32.2,36.7z"/>
</g>
<g id="icon_1_">
	<path fill="#01802A" d="M34,29.3H19.8c-1.6,0-3-1.3-3.1-2.8l-4.3-14.4H8.8c-0.8,0-1.5-0.7-1.5-1.6c0-0.9,0.7-1.6,1.6-1.6h4.7
		c0.7,0,1.4,0.4,1.5,1.2l4.7,15.8c0,0.2,0.1,0.3,0.1,0.4l14.1-0.1c0-0.2-0.1-0.2,0-0.3l2.5-9.1h-12c-0.8,0-1.6-0.7-1.6-1.6
		s0.7-1.6,1.6-1.6h14.1c0.5,0,1,0.3,1.3,0.6s0.3,0.9,0.3,1.4l-3.1,10.8C37,28.1,35.6,29.3,34,29.3z"/>
	<path fill="#01802A" d="M15.3,36.3c-0.4-2.2,1.5-4.1,3.6-3.6c1.3,0.3,2.2,1.3,2.5,2.5c0.4,2.2-1.5,4.1-3.6,3.6
		C16.5,38.5,15.4,37.5,15.3,36.3z"/>
	<path fill="#01802A" d="M32.5,36.3c-0.4-2.2,1.5-4.1,3.6-3.6c1.3,0.3,2.2,1.3,2.5,2.5c0.4,2.2-1.5,4.1-3.6,3.6
		C33.7,38.5,32.7,37.5,32.5,36.3z"/>
</g>
</svg>
