<?xml version="1.0" encoding="utf-8"?>
<!-- Generator: Adobe Illustrator 18.1.1, SVG Export Plug-In . SVG Version: 6.00 Build 0)  -->
<svg version="1.1" id="Layer_1" xmlns="http://www.w3.org/2000/svg" xmlns:xlink="http://www.w3.org/1999/xlink" x="0px" y="0px"
	 viewBox="0 0 346 70" enable-background="new 0 0 346 70" xml:space="preserve">
<g id="bg" display="none">
	<rect id="XMLID_119_" x="-100.4" y="-293.3" display="inline" fill="#FFFFFF" width="546.9" height="656.6"/>
</g>
<g id="guideline" display="none">
</g>
<g id="icons">
	<g id="XMLID_210_" display="none">
		<rect id="XMLID_2_" x="152.5" y="21.7" display="inline" fill="#FFFFFF" width="40.5" height="35.9"/>
		<polygon id="XMLID_264_" display="inline" fill="#FFFFFF" points="151.7,11.5 151.7,13.5 153.9,15.3 153.9,19.6 191.9,19.6 
			191.9,15.3 194.1,13.5 194.1,11.5 		"/>
		<g id="XMLID_265_" display="inline">
			<rect id="XMLID_268_" x="153.9" y="16.3" fill="#CDDCFF" width="38.1" height="3.3"/>
		</g>
		<g id="XMLID_230_" display="inline">
			<path id="XMLID_250_" fill="#E8DDFF" d="M151.2,26v2.6c0,1.5,1.2,2.7,2.7,2.7s2.7-1.2,2.7-2.7V26H151.2z"/>
			<path id="XMLID_215_" fill="#FFFFFF" d="M156.6,26v2.6c0,1.5,1.2,2.7,2.7,2.7s2.7-1.2,2.7-2.7V26H156.6z"/>
			<path id="XMLID_248_" fill="#E8DDFF" d="M162,26v2.6c0,1.5,1.2,2.7,2.7,2.7s2.7-1.2,2.7-2.7V26H162z"/>
			<path id="XMLID_251_" fill="#FFFFFF" d="M167.3,26v2.6c0,1.5,1.2,2.7,2.7,2.7s2.7-1.2,2.7-2.7V26H167.3z"/>
			<path id="XMLID_246_" fill="#E8DDFF" d="M172.7,26v2.6c0,1.5,1.2,2.7,2.7,2.7s2.7-1.2,2.7-2.7V26H172.7z"/>
			<path id="XMLID_249_" fill="#FFFFFF" d="M178,26v2.6c0,1.5,1.2,2.7,2.7,2.7s2.7-1.2,2.7-2.7V26H178z"/>
			<path id="XMLID_245_" fill="#E8DDFF" d="M183.5,26v2.6c0,1.5,1.2,2.7,2.7,2.7s2.7-1.2,2.7-2.7V26H183.5z"/>
			<path id="XMLID_247_" fill="#FFFFFF" d="M188.8,26v2.6c0,1.5,1.2,2.7,2.7,2.7s2.7-1.2,2.7-2.7V26H188.8z"/>
		</g>
		<path id="XMLID_212_" display="inline" fill="#FFFFFF" d="M196.2,54.8h-46.6c0,0-0.1,0-0.1,0.1v3.6h46.8L196.2,54.8
			C196.3,54.8,196.3,54.8,196.2,54.8z"/>
		<path id="XMLID_213_" display="inline" fill="#FFFFFF" d="M196.3,24.2h-47c-0.1,0-0.1-0.1-0.1-0.1v-4.7c0-0.1,0.1-0.1,0.1-0.1h47
			c0.1,0,0.1,0.1,0.1,0.1v4.7C196.5,24.1,196.4,24.2,196.3,24.2z"/>
		
			<linearGradient id="XMLID_5_" gradientUnits="userSpaceOnUse" x1="8.2" y1="38" x2="55.892" y2="38" gradientTransform="matrix(1.0938 0 0 -1.0938 138 76.5625)">
			<stop  offset="0" style="stop-color:#5357FF"/>
			<stop  offset="0.2407" style="stop-color:#6D46FF"/>
			<stop  offset="0.4912" style="stop-color:#813AFF"/>
			<stop  offset="0.7439" style="stop-color:#8D32FF"/>
			<stop  offset="1" style="stop-color:#9130FF"/>
		</linearGradient>
		<path id="XMLID_58_" display="inline" fill="none" stroke="url(#XMLID_5_)" stroke-width="2" stroke-miterlimit="10" d="M156.4,26
			v2.6c0,1.5-1.2,2.7-2.7,2.7l0,0c-1.5,0-2.7-1.2-2.7-2.7V26 M156.4,26v2.6c0,1.5,1.2,2.7,2.7,2.7l0,0c1.5,0,2.7-1.2,2.7-2.7V26
			 M161.7,26v2.6c0,1.5,1.2,2.7,2.7,2.7l0,0c1.5,0,2.7-1.2,2.7-2.7V26 M167.1,26v2.6c0,1.5,1.2,2.7,2.7,2.7l0,0
			c1.5,0,2.7-1.2,2.7-2.7V26 M172.5,26v2.6c0,1.5,1.2,2.7,2.7,2.7l0,0c1.5,0,2.7-1.2,2.7-2.7V26 M177.8,26v2.6
			c0,1.5,1.2,2.7,2.7,2.7l0,0c1.5,0,2.7-1.2,2.7-2.7V26 M183.4,26v2.6c0,1.5,1.2,2.7,2.7,2.7l0,0c1.5,0,2.7-1.2,2.7-2.7V26
			 M188.6,26v2.6c0,1.5,1.2,2.7,2.7,2.7l0,0c1.5,0,2.7-1.2,2.7-2.7V26 M152.5,32.7v22.1 M193,54.8V32.7 M173.9,35.2h-17.2v9.3h17.2
			V35.2z M188.6,35.2h-9.2v15.9h9.2C188.6,51.1,188.6,35.2,188.6,35.2z M196.5,58.5v-3.6c0,0,0-0.1-0.1-0.1h-46.7c0,0-0.1,0-0.1,0.1
			v3.6 M183.5,43.2h-1.9 M196.5,24v-4.7c0-0.1-0.1-0.1-0.1-0.1h-47c-0.1,0-0.1,0.1-0.1,0.1V24c0,0.1,0.1,0.1,0.1,0.1h47
			C196.4,24.2,196.5,24.1,196.5,24z M191.8,17.4v-2.1l2.2-1.9v-2h-42.4v2l2.2,1.9v2.1 M155.8,14.9h15.9 M199,58.5H147"/>
	</g>
	<g id="XMLID_211_" display="none">
		<path id="XMLID_269_" display="inline" fill="#FFFFFF" d="M187.7,13.1c0-1.3-1.1-2.4-2.4-2.4h-24.1c-1.3,0-2.4,1.1-2.4,2.4v43.8
			c0,1.3,1.1,2.4,2.4,2.4h24c1.3,0,2.4-1.1,2.4-2.4V13.1H187.7z"/>
		<g id="XMLID_214_" display="inline">
			<path id="XMLID_216_" fill="#CDDCFF" d="M185.7,26.3h-6.2h-6.2H167h-6.2h-2v5.9c1.1-0.5,1.8-1.5,1.8-2.8c0,1.8,1.4,3.2,3.2,3.2
				s3.2-1.4,3.2-3.2c0,1.8,1.4,3.2,3.2,3.2s3.2-1.4,3.2-3.2c0,1.8,1.4,3.2,3.2,3.2s3.2-1.4,3.2-3.2c0,1.8,1.4,3.2,3.2,3.2
				s3.2-1.4,3.2-3.2v-3.1H185.7z"/>
			<path id="XMLID_217_" fill="#CDDCFF" d="M187.7,26.3h-1.8v3.1c0,1.2,0.8,2.3,1.8,2.8V26.3z"/>
		</g>
		<g id="XMLID_271_" display="inline">
			<path id="XMLID_270_" fill="#E8DDFF" d="M154.3,24.1v3.1c0,1.8,1.4,3.2,3.2,3.2s3.2-1.4,3.2-3.2v-3.1H154.3z"/>
			<path id="XMLID_292_" fill="#FFFFFF" d="M160.5,24.1v3.1c0,1.8,1.4,3.2,3.2,3.2s3.2-1.4,3.2-3.2v-3.1H160.5z"/>
			<path id="XMLID_288_" fill="#E8DDFF" d="M166.9,24.1v3.1c0,1.8,1.4,3.2,3.2,3.2s3.2-1.4,3.2-3.2v-3.1H166.9z"/>
			<path id="XMLID_275_" fill="#FFFFFF" d="M173.1,24.1v3.1c0,1.8,1.4,3.2,3.2,3.2s3.2-1.4,3.2-3.2v-3.1H173.1z"/>
			<path id="XMLID_274_" fill="#E8DDFF" d="M179.3,24.1v3.1c0,1.8,1.4,3.2,3.2,3.2s3.2-1.4,3.2-3.2v-3.1H179.3z"/>
			<path id="XMLID_273_" fill="#FFFFFF" d="M185.9,24.1v3.1c0,1.8,1.4,3.2,3.2,3.2s3.2-1.4,3.2-3.2v-3.1H185.9z"/>
		</g>
		
			<linearGradient id="XMLID_6_" gradientUnits="userSpaceOnUse" x1="13.2" y1="38" x2="50.7386" y2="38" gradientTransform="matrix(1.0938 0 0 -1.0938 138 76.5625)">
			<stop  offset="0" style="stop-color:#5357FF"/>
			<stop  offset="0.2407" style="stop-color:#6D46FF"/>
			<stop  offset="0.4912" style="stop-color:#813AFF"/>
			<stop  offset="0.7439" style="stop-color:#8D32FF"/>
			<stop  offset="1" style="stop-color:#9130FF"/>
		</linearGradient>
		<path id="XMLID_108_" display="inline" fill="none" stroke="url(#XMLID_6_)" stroke-width="2" stroke-miterlimit="10" d="
			M160.3,24.1v3.1c0,1.8-1.4,3.2-3.2,3.2l0,0c-1.8,0-3.2-1.4-3.2-3.2v-3.1 M160.3,24.1v3.1c0,1.8,1.4,3.2,3.2,3.2l0,0
			c1.8,0,3.2-1.4,3.2-3.2v-3.1 M166.7,24.1v3.1c0,1.8,1.4,3.2,3.2,3.2l0,0c1.8,0,3.2-1.4,3.2-3.2v-3.1 M172.9,24.1v3.1
			c0,1.8,1.4,3.2,3.2,3.2l0,0c1.8,0,3.2-1.4,3.2-3.2v-3.1 M179.2,24.1v3.1c0,1.8,1.4,3.2,3.2,3.2l0,0c1.8,0,3.2-1.4,3.2-3.2v-3.1
			 M185.7,24.1v3.1c0,1.8,1.4,3.2,3.2,3.2l0,0c1.8,0,3.2-1.4,3.2-3.2v-3.1 M158.6,31.9v24.9c0,1.3,1.1,2.4,2.4,2.4H185
			c1.3,0,2.4-1.1,2.4-2.4V31.9 M187.4,20.3v-7.2c0-1.3-1.1-2.4-2.4-2.4H161c-1.3,0-2.4,1.1-2.4,2.4v7.1 M187.4,18h-28.9 M177.6,14.5
			h-9.3 M187.4,52h-28.9 M169.3,44.7h4.9c1.3,0,2.3-1.1,2.3-2.3l0,0c0-1.3-1.1-2.3-2.3-2.3h-2.3c-1.3,0-2.3-1.1-2.3-2.3l0,0
			c0-1.3,1.1-2.3,2.3-2.3h4.7 M173.2,32.9v2.4 M173.2,46.9v-2.3 M152.4,22.1h41"/>
	</g>
	<g id="XMLID_133_" display="none">
		<circle id="XMLID_296_" display="inline" fill="#FFFFFF" cx="164.7" cy="24.3" r="9.1"/>
		<path id="XMLID_253_" display="inline" fill="#E8DDFF" d="M164.7,15.2c-3.1,0-5.8,1.5-7.4,3.8c1.5-1.1,3.3-1.6,5.3-1.6
			c5,0,9.1,4,9.1,9.1c0,2-0.7,3.7-1.6,5.3c2.3-1.6,3.8-4.4,3.8-7.4C173.8,19.4,169.7,15.2,164.7,15.2z"/>
		<path id="XMLID_272_" display="inline" fill="#FFFFFF" d="M188,58.2L188,58.2c-3.2,0-5.8-2.6-5.8-5.8v-4.7c0-3.2,2.6-5.8,5.8-5.8
			l0,0c3.2,0,5.8,2.6,5.8,5.8v4.8C193.8,55.7,191.2,58.2,188,58.2z"/>
		<path id="XMLID_294_" display="inline" fill="#CDDCFF" d="M190.8,42.8c0.4,0.9,0.8,1.7,0.8,2.8v4.7c0,3.2-2.6,5.8-5.8,5.8
			c-1,0-2-0.3-2.8-0.8c1,1.7,2.8,3,5,3c3.2,0,5.8-2.6,5.8-5.8v-4.7C193.8,45.6,192.6,43.8,190.8,42.8z"/>
		
			<linearGradient id="XMLID_7_" gradientUnits="userSpaceOnUse" x1="12.0194" y1="37.95" x2="52" y2="37.95" gradientTransform="matrix(1.0938 0 0 -1.0938 138 76.5625)">
			<stop  offset="0" style="stop-color:#5357FF"/>
			<stop  offset="0.2407" style="stop-color:#6D46FF"/>
			<stop  offset="0.4912" style="stop-color:#813AFF"/>
			<stop  offset="0.7439" style="stop-color:#8D32FF"/>
			<stop  offset="1" style="stop-color:#9130FF"/>
		</linearGradient>
		<path id="XMLID_96_" display="inline" fill="none" stroke="url(#XMLID_7_)" stroke-width="2" stroke-miterlimit="10" d="
			M167.5,20.8h-3.7c-1,0-1.9,0.8-1.9,1.9l0,0c0,1,0.8,1.9,1.9,1.9h1.8c1,0,1.9,0.8,1.9,1.9l0,0c0,1-0.8,1.9-1.9,1.9h-3.8
			 M164.8,18.8v2 M164.8,29.8V28 M164.7,15.2c-5,0-9.1,4-9.1,9.1s4,9.1,9.1,9.1s9.1-4,9.1-9.1S169.7,15.2,164.7,15.2z M193.8,52.5
			v-4.7c0-3.2-2.6-5.8-5.8-5.8l0,0c-3.2,0-5.8,2.6-5.8,5.8v4.7c0,3.2,2.6,5.8,5.8,5.8l0,0C191.2,58.2,193.8,55.7,193.8,52.5z
			 M181.3,48.8h12.5 M188,46.7v-2.5 M164.8,36.2v7.2c0,3,2.4,5.5,5.5,5.5l0,0c3,0,5.5-2.4,5.5-5.5v-6c0-3.4,2.8-6.2,6.2-6.1l0,0
			c3.4,0,6.1,2.7,6.1,6.1v4.7 M156.6,33.9c0.4,0.3,0.8,0.7,1.2,0.9 M153.6,30.4c0.2,0.4,0.5,0.9,0.9,1.3 M152.2,25.9
			c0.1,0.5,0.2,1.1,0.3,1.5 M153.1,19.5c-0.3,0.8-0.5,1.5-0.8,2.4 M157.7,13.9c-0.7,0.4-1.3,1-1.9,1.5 M164.7,11.8
			c-0.9,0-1.8,0.1-2.5,0.2 M171.7,13.9c-0.7-0.4-1.4-0.9-2.1-1.2 M176.2,19.5c-0.3-0.8-0.7-1.4-1.2-2.1 M177.2,25.9
			c0.1-0.5,0.1-1.1,0.1-1.6 M175.7,30.3c0.2-0.4,0.4-0.9,0.7-1.4 M172.9,33.8c0.3-0.3,0.8-0.7,1.1-1.1"/>
	</g>
	<g id="XMLID_218_" display="none">
		<circle id="XMLID_300_" display="inline" fill="#FFFFFF" cx="173.2" cy="35" r="20.1"/>
		<path id="XMLID_525_" display="inline" fill="#CDDCFF" d="M173.2,20.2c-4.7,0-8.8,2.2-11.5,5.5c2.5-2.1,5.8-3.3,9.3-3.3
			c8.2,0,14.9,6.7,14.9,14.9c0,3.5-1.2,6.8-3.3,9.3c3.4-2.7,5.5-6.9,5.5-11.5C188,26.8,181.3,20.2,173.2,20.2z"/>
		
			<linearGradient id="XMLID_8_" gradientUnits="userSpaceOnUse" x1="8.3" y1="38" x2="55.7" y2="38" gradientTransform="matrix(1.0938 0 0 -1.0938 138 76.5625)">
			<stop  offset="0" style="stop-color:#5357FF"/>
			<stop  offset="0.2407" style="stop-color:#6D46FF"/>
			<stop  offset="0.4912" style="stop-color:#813AFF"/>
			<stop  offset="0.7439" style="stop-color:#8D32FF"/>
			<stop  offset="1" style="stop-color:#9130FF"/>
		</linearGradient>
		<path id="XMLID_142_" display="inline" fill="none" stroke="url(#XMLID_8_)" stroke-width="2" stroke-miterlimit="10" d="
			M165.7,29.2v10.5c0,0.1-0.1,0.1-0.1,0.1H164c-0.1,0-0.1,0-0.1-0.1l-3-9.3c0-0.1-0.1-0.1-0.1-0.1h-1.5c-0.1,0-0.1,0.1-0.1,0.1v10.4
			 M175.6,30.3h-4.8c-0.1,0-0.2,0.1-0.2,0.2v9.1c0,0.1,0.1,0.2,0.2,0.2h4.8 M170.4,35.1h3.8 M179,29.9v9.7c0,0.1,0.1,0.2,0.2,0.2
			h1.4c0.2,0,0.3-0.1,0.4-0.3l1.6-4.6c0-0.1,0.1-0.1,0.2-0.1h1.1c0.1,0,0.2,0.1,0.2,0.1l1.6,4.5c0.1,0.1,0.3,0.2,0.4,0.3h1.4
			c0.1,0,0.2-0.1,0.2-0.2v-9.7 M173.1,14.9C162,14.9,153,24,153,35s9.1,20.1,20.1,20.1S193.2,46,193.2,35S184.2,14.9,173.1,14.9z
			 M178.9,21.3c-1.8-0.8-3.7-1.2-5.8-1.2c-5.3,0-9.7,2.6-12.5,6.7 M169.4,49.5c1.2,0.3,2.4,0.4,3.7,0.4c5.5,0,10.2-2.8,12.8-7.2
			 M168.1,59.5c0.8,0.2,1.6,0.3,2.5,0.3 M161.2,57c0.7,0.4,1.4,0.8,2.2,1.1 M155.5,52.6c0.5,0.5,1.2,1.1,1.8,1.6 M151.2,46.9
			c0.4,0.7,0.8,1.4,1.2,2.1 M148.7,40c0.2,0.8,0.3,1.6,0.7,2.4 M148.3,32.5c-0.1,0.9-0.1,1.6-0.1,2.5 M150.1,25.4
			c-0.3,0.8-0.5,1.5-0.9,2.3 M153.9,19.3c-0.5,0.7-1,1.2-1.4,2 M159.1,14.4c-0.7,0.4-1.3,0.9-2,1.4 M165.7,11.3
			c-0.8,0.2-1.5,0.5-2.3,0.9 M173.1,10.2c-0.9,0-1.8,0-2.5,0.1 M180.4,11.3c-0.8-0.2-1.5-0.4-2.4-0.7 M187,14.4
			c-0.7-0.4-1.3-0.9-2.1-1.2 M192.3,19.3c-0.5-0.7-1.1-1.2-1.6-1.8 M196,25.4c-0.3-0.8-0.7-1.4-1.1-2.2 M197.8,32.5
			c-0.1-0.9-0.2-1.6-0.3-2.5 M197.5,40c0.2-0.8,0.3-1.6,0.3-2.5 M195,46.9c0.4-0.7,0.8-1.4,1.1-2.2 M190.6,52.6
			c0.5-0.5,1.1-1.2,1.6-1.8 M184.9,57c0.7-0.4,1.4-0.8,2.1-1.2 M175.6,59.8c0.9-0.1,1.6-0.2,2.5-0.3"/>
	</g>
	<g id="XMLID_526_" display="none">
		<path id="XMLID_529_" display="inline" fill="#FFFFFF" d="M151.3,24.9v26.7c0,1.8,1.4,3.2,3.2,3.2h6.7V24.9H151.3z"/>
		<path id="XMLID_528_" display="inline" fill="#CDDCFF" d="M176.4,54.9h-21.3c2.1,0,3.3-1.7,3.3-3.3l-0.1-37.1
			c0-1.6,1.3-3.1,3.1-3.1h15.1V54.9z"/>
		<path id="XMLID_531_" display="inline" fill="#FFFFFF" d="M192.8,11.4h-2.1h-30.4c2.1,0,3.3,1.8,3.3,3.3l-0.1,44.1h31.1V13.2
			C194.7,12.3,193.8,11.4,192.8,11.4z"/>
		<path id="XMLID_522_" display="inline" fill="#E8DDFF" d="M184.4,17.9c0-1.6-1.3-3-3-3c-0.9,0-1.5,0.3-2.1,0.9
			c-0.5-0.5-1.3-0.9-2.1-0.9c-1.6,0-3,1.3-3,3c0,0.8,0.3,1.5,0.9,2.1l4.3,4.3l4.4-4.4c0-0.1,0.2-0.2,0.2-0.2
			C184.2,19.1,184.4,18.6,184.4,17.9z"/>
		
			<linearGradient id="XMLID_9_" gradientUnits="userSpaceOnUse" x1="11.2" y1="38.05" x2="52.8616" y2="38.05" gradientTransform="matrix(1.0938 0 0 -1.0938 138 76.5625)">
			<stop  offset="0" style="stop-color:#5357FF"/>
			<stop  offset="0.2407" style="stop-color:#6D46FF"/>
			<stop  offset="0.4912" style="stop-color:#813AFF"/>
			<stop  offset="0.7439" style="stop-color:#8D32FF"/>
			<stop  offset="1" style="stop-color:#9130FF"/>
		</linearGradient>
		<path id="XMLID_163_" display="inline" fill="none" stroke="url(#XMLID_9_)" stroke-width="2" stroke-miterlimit="10" d="
			M154.5,54.8c-1.8,0-3.2-1.4-3.2-3.2V24.9h3.7 M162.6,11.4h-2c-1.6,0-3.1,1.3-3.1,3.1l0.1,37c0,1.6-1.2,3.3-3.3,3.3h6.8
			 M194.7,58.6V13.2c0-1.1-0.9-2-2-2h-2.1h-30.3c2.1,0,3.3,1.8,3.3,3.3l-0.1,44.1H194.7z M184.4,17.9c0-1.6-1.3-3-3-3
			c-0.9,0-1.5,0.3-2.1,0.9c-0.5-0.5-1.3-0.9-2.1-0.9c-1.6,0-3,1.3-3,3c0,0.8,0.3,1.5,0.9,2.1l4.3,4.3l4.4-4.4c0-0.1,0.2-0.2,0.2-0.2
			C184.2,19.1,184.4,18.6,184.4,17.9z M174.2,31.7h17.5 M174.2,38h17.5 M191.7,44.3h-17.5 M191.7,50.5h-17.5 M172,31.7h-4.2 M172,38
			h-4.2 M172,44.3h-4.2 M167.9,50.5h4.2"/>
	</g>
	<g id="XMLID_94_" display="none">
		<path id="XMLID_565_" display="inline" fill="#FFFFFF" d="M163.7,26L163.7,26c-1.9,0-3.4,1.5-3.4,3.4v13.1c0,1.9,1.5,3.4,3.4,3.4
			l0,0V26z"/>
		<path id="XMLID_547_" display="inline" fill="#CDDCFF" d="M163.8,42.7V46h13.1c1.9,0,3.4-1.5,3.4-3.4H163.8z"/>
		<path id="XMLID_568_" display="inline" fill="#FFFFFF" d="M167.4,12.7v24.8c0,0,0,0.1,0.1,0.1h23.8c0,0,0.1,0,0.1-0.1V12.7
			l-1.9,1.9l-3.6-1.9l-4.6,1.9l-3.6-1.9l-4.5,1.9L167.4,12.7z"/>
		
			<linearGradient id="XMLID_10_" gradientUnits="userSpaceOnUse" x1="8.325" y1="38" x2="55.207" y2="38" gradientTransform="matrix(1.0938 0 0 -1.0938 138 76.5625)">
			<stop  offset="0" style="stop-color:#5357FF"/>
			<stop  offset="0.2407" style="stop-color:#6D46FF"/>
			<stop  offset="0.4912" style="stop-color:#813AFF"/>
			<stop  offset="0.7439" style="stop-color:#8D32FF"/>
			<stop  offset="1" style="stop-color:#9130FF"/>
		</linearGradient>
		<path id="XMLID_180_" display="inline" fill="none" stroke="url(#XMLID_10_)" stroke-width="2" stroke-miterlimit="10" d="
			M162.7,50.6v-4.8 M155.4,43.3l5.1,0.2 M163.7,26L163.7,26c-1.9,0-3.4,1.5-3.4,3.4v13.1c0,1.9,1.5,3.4,3.4,3.4l0,0V26z M149.3,42.3
			c-1.4,1.4-1.4,3.7,0,5.1s3.7,1.4,5.1,0c1.4-1.4,1.4-3.7,0-5.1S150.7,40.9,149.3,42.3z M158.3,51.4c-1.4,1.4-1.4,3.7,0,5.1
			s3.7,1.4,5.1,0s1.4-3.7,0-5.1C162.2,50,159.8,50,158.3,51.4z M163.7,46h13.1c1.9,0,3.4-1.5,3.4-3.4l0,0h-16.5 M167.2,17.1v20.5
			c0,0,0,0.1,0.1,0.1h23.8c0,0,0.1,0,0.1-0.1V17.1 M197.8,14.7l-3.7-2.2c-0.2-0.1-0.4-0.1-0.7,0l-3.4,2c-0.2,0.1-0.4,0.1-0.7,0
			l-3.4-2c-0.2-0.1-0.4-0.1-0.7,0l-3.6,2c-0.2,0.1-0.4,0.1-0.7,0l-3.4-2c-0.2-0.1-0.4-0.1-0.7,0l-3.4,2c-0.2,0.1-0.4,0.1-0.7,0
			l-3.4-2c-0.2-0.1-0.4-0.1-0.7,0l-3.6,2c-0.2,0.1-0.4,0.1-0.7,0l-3.7-2.2 M182,30.2c-0.7,0.7-0.7,1.8,0,2.5c0.7,0.7,1.8,0.7,2.5,0
			c0.7-0.7,0.7-1.8,0-2.5C183.7,29.4,182.6,29.4,182,30.2z M173.9,22.1c-0.7,0.7-0.7,1.8,0,2.5c0.7,0.7,1.8,0.7,2.5,0
			c0.7-0.7,0.7-1.8,0-2.5C175.7,21.4,174.6,21.4,173.9,22.1z M184.4,22.2l-9.4,9.4"/>
	</g>
	<g id="XMLID_92_" display="none">
		<path id="XMLID_90_" display="inline" fill="#FFFFFF" d="M196.7,58.1h-28.9c-0.1,0-0.2-0.1-0.2-0.2V21.8c0-0.1,0.1-0.2,0.2-0.2
			h28.8c0.1,0,0.2,0.1,0.2,0.2v36.1C196.8,58,196.8,58.1,196.7,58.1z"/>
		<path id="XMLID_219_" display="inline" fill="#CDDCFF" d="M196.7,21.5h-4.4c0.1,0,0.2,0.1,0.2,0.2v36.1c0,0.1-0.1,0.2-0.2,0.2h4.4
			c0.1,0,0.2-0.1,0.2-0.2V21.8C196.8,21.5,196.8,21.5,196.7,21.5z"/>
		<path id="XMLID_543_" display="inline" fill="#FFFFFF" d="M185.7,58.2H150c-0.1,0-0.2-0.1-0.2-0.2l1.1-4.8V35.4
			c0-0.2,0.1-0.3,0.3-0.3h33.4c0.2,0,0.3,0.1,0.3,0.3v17.7L186,58C185.9,58.1,185.8,58.2,185.7,58.2z"/>
		<path id="XMLID_548_" display="inline" fill="#E8DDFF" d="M184.8,52.7h-33.9v0.4l-1.1,4.8c0,0.1,0.1,0.2,0.2,0.2h35.7
			c0.1,0,0.2-0.1,0.2-0.2l-1.1-4.8V52.7z"/>
		
			<linearGradient id="XMLID_11_" gradientUnits="userSpaceOnUse" x1="9.2" y1="38" x2="54.8908" y2="38" gradientTransform="matrix(1.0938 0 0 -1.0938 138 76.5625)">
			<stop  offset="0" style="stop-color:#5357FF"/>
			<stop  offset="0.2407" style="stop-color:#6D46FF"/>
			<stop  offset="0.4912" style="stop-color:#813AFF"/>
			<stop  offset="0.7439" style="stop-color:#8D32FF"/>
			<stop  offset="1" style="stop-color:#9130FF"/>
		</linearGradient>
		<path id="XMLID_187_" display="inline" fill="none" stroke="url(#XMLID_11_)" stroke-width="2" stroke-miterlimit="10" d="
			M167.5,32.6V21.7c0-0.1,0.1-0.1,0.1-0.1h29c0.1,0,0.1,0.1,0.1,0.1v36.4c0,0.1-0.1,0.1-0.1,0.1h-8.1 M185.9,58l-1.1-4.8V35.4
			c0-0.2-0.1-0.3-0.3-0.3h-33.3c-0.2,0-0.3,0.1-0.3,0.3v17.7l-1.1,4.8c0,0.1,0.1,0.2,0.2,0.2h35.7C185.8,58.2,185.9,58.1,185.9,58z
			 M150.9,52.6h16.6 M169.7,52.6h2 M190.8,28.7v-8.2c0-4.7-3.8-8.6-8.6-8.6l0,0c-4.7,0-8.6,3.8-8.6,8.6v8.2 M159.5,37.4v2.4
			c0,4.7,3.8,8.6,8.6,8.6l0,0c4.7,0,8.6-3.8,8.6-8.6v-2.4 M153,17.5l3.6,3.6l8.3-8.3 M159.8,13.2c-1.1-0.7-2.3-1-3.6-1
			c-3.9,0-7,3.2-7,7c0,3.9,3.2,7,7,7c3.9,0,7-3.2,7-7"/>
	</g>
	<g id="XMLID_179_" display="none">
		<path id="XMLID_89_" display="inline" fill="#FFFFFF" d="M176,34.5V12.3c0-0.1-0.1-0.2-0.2-0.2h-25.8c-0.1,0-0.2,0.1-0.2,0.2v45.3
			c0,0.2,0.1,0.3,0.3,0.3h3.7L176,58V34.5z"/>
		<path id="XMLID_549_" display="inline" fill="#FFFFFF" d="M194.1,58h-36.6c-1.2,0-2.2-1-2.2-2.2V38.6c0-1.2,1-2.2,2.2-2.2h36.6
			c1.2,0,2.2,1,2.2,2.2v17.3C196.3,57.1,195.3,58,194.1,58z"/>
		<circle id="XMLID_544_" display="inline" fill="#E8DDFF" cx="176" cy="47.4" r="7.4"/>
		<path id="XMLID_91_" display="inline" fill="#CDDCFF" d="M161.3,27.5h-5.6c-0.1,0-0.2-0.1-0.2-0.2v-8.6c0-0.1,0.1-0.2,0.2-0.2h5.6
			c0.1,0,0.2,0.1,0.2,0.2v8.6C161.5,27.3,161.4,27.5,161.3,27.5z"/>
		
			<linearGradient id="XMLID_12_" gradientUnits="userSpaceOnUse" x1="9.7481" y1="37.85" x2="54.2519" y2="37.85" gradientTransform="matrix(1.0938 0 0 -1.0938 138 76.5625)">
			<stop  offset="0" style="stop-color:#5357FF"/>
			<stop  offset="0.2407" style="stop-color:#6D46FF"/>
			<stop  offset="0.4912" style="stop-color:#813AFF"/>
			<stop  offset="0.7439" style="stop-color:#8D32FF"/>
			<stop  offset="1" style="stop-color:#9130FF"/>
		</linearGradient>
		<path id="XMLID_237_" display="inline" fill="none" stroke="url(#XMLID_12_)" stroke-width="2" stroke-miterlimit="10" d="
			M178.6,43.8H175c-1,0-1.8,0.8-1.8,1.8l0,0c0,1,0.8,1.7,1.8,1.7h1.8c1,0,1.8,0.8,1.8,1.8l0,0c0,1-0.8,1.7-1.8,1.7H173 M176,43.8
			v-1.9 M176,52.6v-1.8 M196.3,55.9V38.6c0-1.2-1-2.2-2.2-2.2h-36.6c-1.2,0-2.2,1-2.2,2.2v17.3c0,1.2,1,2.2,2.2,2.2h36.6
			C195.3,58,196.3,57.1,196.3,55.9z M155.4,42.9c3.5,0,6.3-2.8,6.3-6.3 M189.8,36.4c0,3.5,2.8,6.3,6.3,6.3 M161.7,58
			c0-3.5-2.8-6.3-6.3-6.3 M196.3,51.6c-3.5,0-6.3,2.8-6.3,6.3 M175.8,39.8c-4.2,0-7.4,3.4-7.4,7.4c0,4.2,3.4,7.4,7.4,7.4
			s7.4-3.4,7.4-7.4C183.3,43.1,179.9,39.8,175.8,39.8z M166.1,47.3h-2.4 M187.7,47.3h-2.4 M176,34.7V12.5c0-0.1-0.1-0.2-0.2-0.2
			h-25.8c-0.1,0-0.2,0.1-0.2,0.2v45.3c0,0.2,0.1,0.3,0.3,0.3h3.7 M169.6,21.8v-4.6 M169.6,28.7v-4.6 M169.6,33.9v-3 M161.4,27.2
			v-8.6c0-0.1-0.1-0.2-0.2-0.2h-5.6c-0.1,0-0.2,0.1-0.2,0.2v8.6c0,0.1,0.1,0.2,0.2,0.2h5.6C161.3,27.5,161.4,27.3,161.4,27.2z
			 M180,19.1c-0.5,0-1.1-0.1-1.6-0.1 M184.5,20.2c-0.4-0.2-1-0.3-1.4-0.5 M188.4,22.6c-0.4-0.3-0.8-0.7-1.2-0.9 M191.5,26
			c-0.3-0.4-0.5-0.9-0.9-1.2 M193.6,30.2c-0.1-0.5-0.3-1-0.5-1.4 M194.2,35c0-0.5,0-1.1-0.1-1.6"/>
	</g>
	<g id="XMLID_87_" display="none">
		<rect id="XMLID_555_" x="161.1" y="51.5" display="inline" fill="#FFFFFF" width="23" height="7.7"/>
		<rect id="XMLID_554_" x="161.1" y="51.5" display="inline" fill="#CDDCFF" width="23" height="3.8"/>
		<path id="XMLID_553_" display="inline" fill="#FFFFFF" d="M195.2,22.3c0.5,0,1.1,0.4,1.1,1.1v26.9c0,0.5-0.4,1.1-1.1,1.1h-44.4
			c-0.5,0-1.1-0.4-1.1-1.1V23.4c0-0.5,0.4-1.1,1.1-1.1H195.2z"/>
		<path id="XMLID_552_" display="inline" fill="#FFFFFF" d="M195.2,22.8c0.5,0,1.1,0.4,1.1,1.1v21.4h-46.6V23.8
			c0-0.5,0.4-1.1,1.1-1.1H195.2z"/>
		<rect id="XMLID_556_" x="157" y="10.9" display="inline" fill="#FFFFFF" width="31.6" height="34.1"/>
		<rect id="XMLID_85_" x="157" y="10.9" display="inline" fill="#E8DDFF" width="31.6" height="5.9"/>
		
			<linearGradient id="XMLID_13_" gradientUnits="userSpaceOnUse" x1="9.5" y1="38.05" x2="54.5" y2="38.05" gradientTransform="matrix(1.0938 0 0 -1.0938 138 76.5625)">
			<stop  offset="0" style="stop-color:#5357FF"/>
			<stop  offset="0.2407" style="stop-color:#6D46FF"/>
			<stop  offset="0.4912" style="stop-color:#813AFF"/>
			<stop  offset="0.7439" style="stop-color:#8D32FF"/>
			<stop  offset="1" style="stop-color:#9130FF"/>
		</linearGradient>
		<path id="XMLID_258_" display="inline" fill="none" stroke="url(#XMLID_13_)" stroke-width="2" stroke-miterlimit="10" d="
			M190.8,22.3h4.6c0.7,0,1.1,0.4,1.1,1.1v27.1c0,0.7-0.4,1.1-1.1,1.1h-44.8c-0.7,0-1.1-0.4-1.1-1.1V23.4c0-0.7,0.4-1.1,1.1-1.1h4.4
			 M196.5,45.3h-47 M161.3,59.1V51 M184.3,59.1V51 M157.1,59.1h31.4 M188.8,45V10.8h-31.5V45 M157.4,17.1h31.5 M162.4,14.1h-2.5
			 M165.8,14.1h-2.5 M169.2,14.1h-2.5 M169.6,29.3l4.8,4.8 M173.3,28.4h-4.6V33 M177.7,30.6c0.2-1.9-0.1-3.9-1.3-5.7
			c-2.5-3.7-7.5-4.7-11.4-2.2c-3.7,2.5-4.7,7.5-2.2,11.4c1.4,2.1,3.6,3.3,5.9,3.6 M185.4,25.2h-4.7 M185.4,29.6h-4.7 M177.7,34.2
			h7.5 M185.4,38.8H172"/>
	</g>
	<g id="XMLID_80_" display="none">
		<path id="XMLID_540_" display="inline" fill="#FFFFFF" d="M153.9,26.5v31.8c0,0.1,0.1,0.1,0.1,0.1H192c0.1,0,0.1-0.1,0.1-0.1V26.5
			H153.9z"/>
		<rect id="XMLID_542_" x="153.9" y="26.5" display="inline" fill="#CDDCFF" width="38.4" height="10.9"/>
		<path id="XMLID_539_" display="inline" fill="#FFFFFF" d="M195.3,33.5h-44.7c-0.1,0-0.1-0.1-0.1-0.1V25c0-0.1,0.1-0.1,0.1-0.1
			h44.7c0.1,0,0.1,0.1,0.1,0.1v8.3C195.4,33.5,195.4,33.5,195.3,33.5z"/>
		<path id="XMLID_88_" display="inline" fill="#E8DDFF" d="M195.3,24.9h-44.7c-0.1,0-0.1,0.1-0.1,0.1v3.3c0-0.1,0.1-0.1,0.1-0.1
			h44.7c0.1,0,0.1,0.1,0.1,0.1V25C195.4,24.9,195.4,24.9,195.3,24.9z"/>
		<path id="XMLID_538_" display="inline" fill="#FFFFFF" d="M172.8,21.4c-1.9,0-3.3,1.4-3.3,3.3h6.6
			C176.1,22.9,174.6,21.4,172.8,21.4z"/>
		<path id="XMLID_82_" display="inline" fill="#FFFFFF" d="M186.2,17.9l-6.3-6.3c-0.2-0.2-0.4-0.1-0.5,0.1l-5.3,9.3l2.7,2.7l9.3-5.1
			C186.3,18.5,186.5,18.2,186.2,17.9z"/>
		<path id="XMLID_86_" display="inline" fill="#FFFFFF" d="M167,11.7c-0.1-0.2-0.4-0.2-0.5-0.1l-6.3,6.3c-0.2,0.2-0.2,0.5,0,0.7
			l9.3,5.3l2.7-2.7L167,11.7z"/>
		
			<linearGradient id="XMLID_14_" gradientUnits="userSpaceOnUse" x1="10.5" y1="38.0328" x2="53.6" y2="38.0328" gradientTransform="matrix(1.0938 0 0 -1.0938 138 76.5625)">
			<stop  offset="0" style="stop-color:#5357FF"/>
			<stop  offset="0.2407" style="stop-color:#6D46FF"/>
			<stop  offset="0.4912" style="stop-color:#813AFF"/>
			<stop  offset="0.7439" style="stop-color:#8D32FF"/>
			<stop  offset="1" style="stop-color:#9130FF"/>
		</linearGradient>
		<path id="XMLID_286_" display="inline" fill="none" stroke="url(#XMLID_14_)" stroke-width="2" stroke-miterlimit="10" d="
			M195.4,33.5h-44.7c-0.1,0-0.1-0.1-0.1-0.1V25c0-0.1,0.1-0.1,0.1-0.1h44.7c0.1,0,0.1,0.1,0.1,0.1v8.3
			C195.5,33.5,195.4,33.5,195.4,33.5z M154,35.2v23.1c0,0.1,0.1,0.1,0.1,0.1h38.1c0.1,0,0.1-0.1,0.1-0.1V35.2 M169.5,36.1v22.4
			 M176.6,36.1v22.4 M176.6,50.6l-7.2,7.2 M169.2,51.8l7.2-7.2 M176.7,38.1l-7.1,7.1 M169.5,39.2l2.4-2.4 M170.3,33.3l8.3-8.3
			 M172.2,25.2l-4.9,4.9 M167.4,33.5v-8.8 M178.6,24.7v8.8 M176.1,24.7c0-1.9-1.4-3.3-3.3-3.3s-3.3,1.4-3.3,3.3 M176.8,23.7l9.3-5.1
			c0.2-0.1,0.2-0.4,0.1-0.5l-6.3-6.3c-0.2-0.2-0.4-0.1-0.5,0.1l-5.3,9.2 M172.2,21l-5.3-9.3c-0.1-0.2-0.4-0.2-0.5-0.1l-6.3,6.3
			c-0.2,0.2-0.2,0.5,0,0.7l9.3,5.3"/>
	</g>
	<circle id="XMLID_546_" fill="#FFFFFF" cx="169.2" cy="53.3" r="3.8"/>
	<circle id="XMLID_541_" fill="#FFFFFF" cx="185.6" cy="53.3" r="3.8"/>
	<path id="XMLID_566_" fill="#FFFFFF" d="M192.6,45.2h-29.2c-0.1,0-0.1,0-0.1-0.1l-5.4-19.1c0-0.1,0-0.2,0.1-0.2h40
		c0.1,0,0.1,0.1,0.1,0.2l-5.5,19.1C192.7,45.2,192.6,45.2,192.6,45.2z"/>
	<path id="XMLID_161_" fill="#CDDCFF" d="M197.9,25.7h-4l-4.5,16.1c0,0.1-0.1,0.1-0.1,0.1h-27l0.9,3.2c0,0.1,0.1,0.1,0.1,0.1h29.2
		c0.1,0,0.1,0,0.1-0.1l5.4-19.1C198,25.8,198,25.7,197.9,25.7z"/>
	<circle id="XMLID_557_" fill="#FFFFFF" cx="177.9" cy="25.8" r="8.9"/>
	<path id="XMLID_591_" fill="#E8DDFF" d="M177.9,17c-3,0-5.6,1.5-7.2,3.8c1.4-1,3.2-1.6,5-1.6c4.8,0,8.9,3.9,8.9,8.9
		c0,1.9-0.5,3.6-1.6,5c2.3-1.6,3.8-4.3,3.8-7.2C186.8,21,182.8,17,177.9,17z"/>
	<path id="XMLID_307_" fill="none" stroke="#7da435" stroke-width="2" stroke-miterlimit="10" d="M166.4,26h-4.4 M148,21.1h7.9
		c0.1,0,0.2,0.1,0.2,0.2l6.6,23.4c0,0.1,0.1,0.2,0.3,0.2h29.3c0.1,0,0.2-0.1,0.3-0.2l5-18.3c0-0.2-0.1-0.3-0.3-0.3H189 M188.3,32.4
		h3.6 M164.3,32.4h3.7 M166.4,38.5h23 M169.2,49.4c-2.1,0-3.8,1.8-3.8,3.8c0,2.1,1.8,3.8,3.8,3.8s3.8-1.7,3.8-3.8
		C173,51.2,171.4,49.4,169.2,49.4z M170.5,53.3H168 M185.6,49.4c-2.1,0-3.8,1.8-3.8,3.8c0,2.1,1.8,3.8,3.8,3.8s3.8-1.7,3.8-3.8
		C189.4,51.2,187.8,49.4,185.6,49.4z M186.9,53.3h-2.5 M173.1,25.8h9.7 M177.9,30.7V21 M177.9,17c-4.8,0-8.9,3.9-8.9,8.9
		s3.9,8.9,8.9,8.9c4.8,0,8.9-3.9,8.9-8.9S182.8,17,177.9,17z M166.7,20.5c-0.2,0.7-0.4,1.3-0.5,2.1 M170.2,15.4
		c-0.5,0.4-1,0.9-1.5,1.4 M175.8,12.9c-0.8,0.1-1.4,0.3-2.1,0.5 M182.3,13.6c-0.7-0.2-1.3-0.4-2.1-0.7 M187.2,17.4
		c-0.4-0.5-0.9-1.1-1.4-1.5 M189.6,23.1c-0.1-0.8-0.2-1.4-0.4-2.1"/>
	<g id="XMLID_571_" display="none">
		<path id="XMLID_558_" display="inline" fill="#FFFFFF" d="M192.4,41h-29.2c-0.1,0-0.1,0-0.1-0.1l-5.4-19.1c0-0.1,0-0.2,0.1-0.2h40
			c0.1,0,0.1,0.1,0.1,0.2l-5.4,19.1C192.5,41,192.4,41,192.4,41z"/>
		<path id="XMLID_570_" display="inline" fill="#CDDCFF" d="M197.7,21.5h-4l-4.5,16.1c0,0.1-0.1,0.1-0.1,0.1h-27l0.9,3.2
			c0,0.1,0.1,0.1,0.1,0.1h29.2c0.1,0,0.1,0,0.1-0.1l5.4-19.1C197.8,21.7,197.8,21.5,197.7,21.5z"/>
		<circle id="XMLID_569_" display="inline" fill="#FFFFFF" cx="169.5" cy="49.1" r="3.8"/>
		<circle id="XMLID_567_" display="inline" fill="#FFFFFF" cx="185.9" cy="49.1" r="3.8"/>
		
			<linearGradient id="XMLID_15_" gradientUnits="userSpaceOnUse" x1="9.3" y1="38.05" x2="55.7188" y2="38.05" gradientTransform="matrix(1.0938 0 0 -1.0938 138 76.5625)">
			<stop  offset="0" style="stop-color:#5357FF"/>
			<stop  offset="0.2407" style="stop-color:#6D46FF"/>
			<stop  offset="0.4912" style="stop-color:#813AFF"/>
			<stop  offset="0.7439" style="stop-color:#8D32FF"/>
			<stop  offset="1" style="stop-color:#9130FF"/>
		</linearGradient>
		<path id="XMLID_320_" display="inline" fill="none" stroke="url(#XMLID_15_)" stroke-width="2" stroke-miterlimit="10" d="
			M162.4,22h35.2c0.2,0,0.3,0.2,0.3,0.3l-5,18.3c0,0.1-0.1,0.2-0.3,0.2h-29.4c-0.1,0-0.2-0.1-0.3-0.2l-6.6-23.4
			c0-0.1-0.1-0.2-0.2-0.2h-7.9 M192.1,28.2h-27.6 M166.7,34.3h23 M169.4,45.3c-2.1,0-3.8,1.8-3.8,3.8c0,2.1,1.8,3.8,3.8,3.8
			s3.8-1.7,3.8-3.8C173.2,47,171.6,45.3,169.4,45.3z M170.7,49.1h-2.5 M185.8,45.3c-2.1,0-3.8,1.8-3.8,3.8c0,2.1,1.8,3.8,3.8,3.8
			s3.8-1.7,3.8-3.8C189.6,47,188,45.3,185.8,45.3z M187.1,49.1h-2.5"/>
	</g>
	<g id="XMLID_537_" display="none">
		<path id="XMLID_578_" display="inline" fill="#FFFFFF" d="M192.1,33.5c0-0.1-0.1-0.1-0.2-0.1H181c-0.1,0-0.3,0.1-0.3,0.3v21.4h1.5
			h11.3h3.3c0.1,0,0.2-0.1,0.2-0.2V43L192.1,33.5z"/>
		<path id="XMLID_590_" display="inline" fill="#FFFFFF" d="M177.3,29h-28.1c-0.1,0-0.1,0.1-0.1,0.1V55c0,0.1,0.1,0.1,0.1,0.1h3.3
			h11.8h13c0.1,0,0.1-0.1,0.1-0.1V29.2C177.4,29.1,177.4,29,177.3,29z"/>
		<path id="XMLID_593_" display="inline" fill="#E8DDFF" d="M177.3,29H173v21.7c0,0.1-0.1,0.1-0.1,0.1h-13H149V55
			c0,0.1,0.1,0.1,0.1,0.1h3.3h11.8h13c0.1,0,0.1-0.1,0.1-0.1V29.2C177.4,29.1,177.4,29,177.3,29z"/>
		<circle id="XMLID_580_" display="inline" fill="#FFFFFF" cx="157.8" cy="55" r="3.7"/>
		<circle id="XMLID_579_" display="inline" fill="#FFFFFF" cx="187.5" cy="55" r="3.7"/>
		<path id="XMLID_592_" display="inline" fill="#CDDCFF" d="M192.1,33.5c0-0.1-0.1-0.1-0.2-0.1h-6.3v9h7.8h3.3L192.1,33.5z"/>
		
			<linearGradient id="XMLID_16_" gradientUnits="userSpaceOnUse" x1="9.1" y1="38" x2="54.9" y2="38" gradientTransform="matrix(1.0938 0 0 -1.0938 138 76.5625)">
			<stop  offset="0" style="stop-color:#5357FF"/>
			<stop  offset="0.2407" style="stop-color:#6D46FF"/>
			<stop  offset="0.4912" style="stop-color:#813AFF"/>
			<stop  offset="0.7439" style="stop-color:#8D32FF"/>
			<stop  offset="1" style="stop-color:#9130FF"/>
		</linearGradient>
		<path id="XMLID_354_" display="inline" fill="none" stroke="url(#XMLID_16_)" stroke-width="2" stroke-miterlimit="10" d="
			M190.7,14.9l-6.5,6.5l-2.6-2.6 M187.8,12.4c-1.2-0.7-2.6-1.1-4-1.1c-4.5,0-8.1,3.6-8.1,8.1s3.6,8.1,8.1,8.1s8.1-3.6,8.1-8.1
			 M157.8,51.3c-2.1,0-3.7,1.6-3.7,3.7c0,2.1,1.6,3.7,3.7,3.7s3.7-1.6,3.7-3.7C161.5,52.9,159.9,51.3,157.8,51.3z M187.5,51.3
			c-2.1,0-3.7,1.6-3.7,3.7c0,2.1,1.6,3.7,3.7,3.7s3.7-1.6,3.7-3.7C191.3,52.9,189.6,51.3,187.5,51.3z M164.3,55.2h13
			c0.1,0,0.1-0.1,0.1-0.1V29.2c0-0.1-0.1-0.1-0.1-0.1h-28.1c-0.1,0-0.1,0.1-0.1,0.1v25.9c0,0.1,0.1,0.1,0.1,0.1h3.3 M193.5,55h3.3
			c0.1,0,0.2-0.1,0.2-0.2V43l-4.8-9.5c0-0.1-0.1-0.1-0.2-0.1H181c-0.1,0-0.3,0.1-0.3,0.3v21.4h1.5 M185.6,33.4v9.2h7.8 M186.8,46.4
			h-2.3 M193.8,49.3h2.3 M177.2,51.3h-13.9 M149,50.1h3.4v-3.7H149 M177.6,34.2h-25.2 M163.3,42.5h14.3 M158.8,42.5h2.3"/>
	</g>
	<g id="XMLID_545_" display="none">
		<path id="XMLID_597_" display="inline" fill="#FFFFFF" d="M163,42.2v16.1c0,0.1,0.1,0.1,0.2,0.1l9.2-3.2l9.6,3.2
			c0.1,0,0.2,0,0.2-0.1V42.2H163z"/>
		<path id="XMLID_601_" display="inline" fill="#CDDCFF" d="M163.3,58.5l9.1-3.2V42.2H163v16.1C163,58.5,163.2,58.5,163.3,58.5z"/>
		<circle id="XMLID_574_" display="inline" fill="#FFFFFF" cx="173" cy="32" r="15.5"/>
		<path id="XMLID_600_" display="inline" fill="#E8DDFF" d="M173,16.5c-3.9,0-7.4,1.4-10.2,3.8c2.1-1,4.4-1.6,6.9-1.6
			c8.5,0,15.5,7,15.5,15.5c0,4.7-2.1,8.9-5.4,11.7c5.1-2.5,8.6-7.8,8.6-13.9C188.5,23.5,181.5,16.5,173,16.5z"/>
		
			<linearGradient id="XMLID_17_" gradientUnits="userSpaceOnUse" x1="12.2136" y1="38.05" x2="51.7618" y2="38.05" gradientTransform="matrix(1.0938 0 0 -1.0938 138 76.5625)">
			<stop  offset="0" style="stop-color:#5357FF"/>
			<stop  offset="0.2407" style="stop-color:#6D46FF"/>
			<stop  offset="0.4912" style="stop-color:#813AFF"/>
			<stop  offset="0.7439" style="stop-color:#8D32FF"/>
			<stop  offset="1" style="stop-color:#9130FF"/>
		</linearGradient>
		<path id="XMLID_353_" display="inline" fill="none" stroke="url(#XMLID_17_)" stroke-width="2" stroke-miterlimit="10" d="
			M188.5,32c0,8.5-7,15.5-15.5,15.5s-15.5-7-15.5-15.5s7-15.5,15.5-15.5C181.5,16.6,188.5,23.5,188.5,32z M173,20.9
			c-6.1,0-11.2,5-11.2,11.2 M188.6,45.5c0.4-0.4,0.8-0.9,1.1-1.4 M191.6,41c0.2-0.5,0.5-1.1,0.8-1.6 M193.2,35.9
			c0.1-0.7,0.2-1.2,0.2-1.9 M193.2,27.9c-0.3-1.3-0.7-2.6-1.2-3.8 M187.5,17.5c-1-1-2-1.8-3.1-2.5 M177.2,11.9
			c-1.3-0.3-2.7-0.4-4.2-0.4s-2.8,0.1-4.2,0.4 M161.5,15c-1.1,0.8-2.1,1.5-3.1,2.5 M154,24.1c-0.5,1.2-0.9,2.5-1.2,3.8 M152.4,34
			c0.1,0.7,0.1,1.2,0.2,1.9 M153.8,39.4c0.2,0.5,0.4,1.1,0.8,1.6 M156.3,44.2c0.3,0.4,0.8,1,1.1,1.4 M163.2,47.7v10.6
			c0,0.1,0.1,0.1,0.2,0.1l9.2-3.2l9.6,3.2c0.1,0,0.2,0,0.2-0.1V47.7 M177.4,38l-0.7-4l3-2.8c0.3-0.3,0.2-1-0.3-1l-4-0.5l-1.8-3.6
			c-0.2-0.4-0.9-0.4-1.1,0l-1.9,3.6l-4,0.5c-0.4,0.1-0.7,0.7-0.3,1l2.8,2.8l-0.8,3.9c-0.1,0.4,0.4,0.9,0.9,0.7l3.6-1.9l3.6,2
			C176.9,38.8,177.5,38.5,177.4,38z"/>
	</g>
	<g id="XMLID_551_" display="none">
		<path id="XMLID_550_" display="inline" fill="#FFFFFF" d="M194.3,54.9h-43.2c-0.1,0-0.3-0.1-0.3-0.3V26.5c0-0.1,0.1-0.3,0.3-0.3
			h43.2c0.1,0,0.3,0.1,0.3,0.3v28.1C194.7,54.7,194.5,54.9,194.3,54.9z"/>
		<path id="XMLID_610_" display="inline" fill="#CDDCFF" d="M196.3,57.8h-46.9c-0.1,0-0.2-0.1-0.2-0.2l-1-5.3c0-0.1,0.1-0.3,0.2-0.3
			h21.2l1.1,1.1h4.4l1.1-1.1h21.2c0.1,0,0.2,0.1,0.2,0.3l-1,5.3C196.5,57.6,196.4,57.8,196.3,57.8z"/>
		<path id="XMLID_607_" display="inline" fill="#FFFFFF" d="M171.4,38.1l1.3-7c-0.8-1.6-1.2-3.5-1.2-5.5c0-7.3,5.9-13.3,13.3-13.3
			c7.3,0,13.3,5.9,13.3,13.3c0,7.3-5.9,13.3-13.3,13.3c-2.6,0-5-0.8-7.1-2.1L171.4,38.1z"/>
		<path id="XMLID_626_" display="inline" fill="#E8DDFF" d="M184.8,12.3c-4.3,0-8,2-10.4,5c2.3-1.8,5.1-2.8,8.2-2.8
			c7.3,0,13.3,5.9,13.3,13.3c0,3.2-1.1,6-2.8,8.2c3.1-2.4,5-6.2,5-10.4C198.2,18.3,192.1,12.3,184.8,12.3z"/>
		
			<linearGradient id="XMLID_18_" gradientUnits="userSpaceOnUse" x1="8" y1="38" x2="55.9544" y2="38" gradientTransform="matrix(1.0938 0 0 -1.0938 138 76.5625)">
			<stop  offset="0" style="stop-color:#5357FF"/>
			<stop  offset="0.2407" style="stop-color:#6D46FF"/>
			<stop  offset="0.4912" style="stop-color:#813AFF"/>
			<stop  offset="0.7439" style="stop-color:#8D32FF"/>
			<stop  offset="1" style="stop-color:#9130FF"/>
		</linearGradient>
		<path id="XMLID_481_" display="inline" fill="none" stroke="url(#XMLID_18_)" stroke-width="2" stroke-miterlimit="10" d="
			M190.5,28.7c0.8,0.8,0.8,2,0,2.7s-2,0.8-2.7,0s-0.8-2,0-2.7C188.5,27.9,189.7,27.9,190.5,28.7z M179,19.9c-0.8,0.8-0.8,2,0,2.7
			c0.8,0.8,2,0.8,2.7,0c0.8-0.8,0.8-2,0-2.7C181,19.1,179.8,19.1,179,19.9z M180.2,30.2L190.4,20 M196.3,57.5l1-5.3
			c0-0.1-0.1-0.3-0.2-0.3h-21.2l-1.1,1.1h-4.4l-1.1-1.1h-21.2c-0.1,0-0.2,0.1-0.2,0.3l1,5.3c0,0.1,0.1,0.2,0.2,0.2H196
			C196.2,57.8,196.2,57.6,196.3,57.5z M168.7,26.3h-17.9c-0.2,0-0.3,0.1-0.3,0.3v22.9 M194.7,38.7v10.7 M177.8,36.9
			c2.1,1.3,4.5,2.1,7.1,2.1c7.3,0,13.3-5.9,13.3-13.3c0-7.3-5.9-13.3-13.3-13.3c-7.3,0-13.3,5.9-13.3,13.3c0,2,0.4,3.7,1.2,5.5
			l-1.3,7L177.8,36.9z M175.7,41.1l2.7,1.5 M173.9,43l1.6,2.7 M171.3,43.8v3.2 M168.6,43l-1.5,2.7 M163.9,42.7l2.7-1.6 M166,38.5
			h-3.2 M163.9,34.3l2.7,1.5 M168.5,33.9l-1.6-2.7"/>
	</g>
	<g id="XMLID_608_" display="none">
		<path id="XMLID_653_" display="inline" fill="#FFFFFF" d="M197.8,27.5h-9.4l0,0l-3,3.3h-8.5h-16.1h-9.3v27.9
			c0,0.1,0.1,0.2,0.2,0.2h41.6c0.1,0,0.2-0.1,0.2-0.2V32.9L197.8,27.5L197.8,27.5z"/>
		<path id="XMLID_663_" display="inline" fill="#DDE7FF" d="M197.8,27.5h-9.2l-3.3,3.3v27.9c0,0.1-0.1,0.2-0.2,0.2h8.2
			c0.1,0,0.2-0.1,0.2-0.2V32.9L197.8,27.5L197.8,27.5z"/>
		<path id="XMLID_652_" display="inline" fill="#DDE7FF" d="M155,25.5C154.8,25.5,154.8,25.5,155,25.5h-6.7c0,0-0.1,0.1,0,0.1
			l3.5,5.1h7L155,25.5z"/>
		<path id="XMLID_679_" display="inline" fill="#FFFFFF" d="M185.7,21.7l-6.9,6.9h-0.1h-0.1l-6.9-6.9c-0.1-0.1,0-0.2,0.1-0.2h3.1
			V11.2h7.8v10.3h3.1C185.8,21.4,185.8,21.5,185.7,21.7z"/>
		<path id="XMLID_678_" display="inline" fill="#DDE7FF" d="M171.8,21.7c-0.1-0.1,0-0.2,0.1-0.2h3.1V11.2h2.4v16.1L171.8,21.7z"/>
		<path id="XMLID_677_" display="inline" fill="#DDCDFF" d="M178.5,35.7l-9.5,9.5h-0.1h-0.1l-9.5-9.5c-0.1-0.1,0-0.2,0.1-0.2h4.3
			V11.2h10.5v24.3h4.3C178.5,35.4,178.5,35.5,178.5,35.7z"/>
		
			<linearGradient id="XMLID_19_" gradientUnits="userSpaceOnUse" x1="8.2556" y1="37.45" x2="55.736" y2="37.45" gradientTransform="matrix(1.0938 0 0 -1.0938 138 76.5625)">
			<stop  offset="0" style="stop-color:#5357FF"/>
			<stop  offset="0.2407" style="stop-color:#6D46FF"/>
			<stop  offset="0.4912" style="stop-color:#813AFF"/>
			<stop  offset="0.7439" style="stop-color:#8D32FF"/>
			<stop  offset="1" style="stop-color:#9130FF"/>
		</linearGradient>
		<path id="XMLID_446_" display="inline" fill="none" stroke="url(#XMLID_19_)" stroke-width="2" stroke-miterlimit="10" d="
			M176.9,30.7h8.5l3-3.3l0,0h9.4l0,0l-4.4,5.5v25.7c0,0.1-0.1,0.2-0.2,0.2h-41.6c-0.1,0-0.2-0.1-0.2-0.2V30.7h9.3 M158.8,30.7
			l-3.8-5.3l0,0h-6.8c0,0-0.1,0.1,0,0.1l3.5,5.1 M185.5,58.8V33.3 M191.5,33.3h-3.6 M163.5,29.2V35h-4.3c-0.1,0-0.2,0.2-0.1,0.3
			l9.7,9.7c0.1,0.1,0.2,0.1,0.2,0l9.7-9.7c0.1-0.1,0-0.3-0.1-0.3h-4.3v-5.6 M176.4,26.4l2,2c0,0,0.1,0,0.2,0l7.5-7.5
			c0.1-0.1,0-0.2-0.1-0.2h-3.3v-9.3 M174.3,12.1v17.3 M168.8,22v17.3"/>
	</g>
	<g id="XMLID_606_" display="none">
		<path id="XMLID_654_" display="inline" fill="#FFFFFF" d="M196.6,55.8l-2.8,2.8c-0.1,0.1-0.2,0.1-0.3,0l-7.1-7.2
			c-0.1-0.1-0.1-0.2,0-0.3l2.8-2.8c0.1-0.1,0.2-0.1,0.3,0l7.2,7.2C196.7,55.6,196.7,55.8,196.6,55.8z"/>
		<path id="XMLID_662_" display="inline" fill="#E8DDFF" d="M172.3,17.1c-9.6,0-17.5,7.9-17.5,17.5s7.9,17.5,17.5,17.5
			s17.5-7.9,17.5-17.5S182.1,17.1,172.3,17.1z M172.3,48.2c-7.5,0-13.7-6.1-13.7-13.7s6.1-13.7,13.7-13.7S186,27,186,34.6
			C186.1,42.1,179.9,48.2,172.3,48.2z"/>
		
			<linearGradient id="XMLID_20_" gradientUnits="userSpaceOnUse" x1="9.3656" y1="38.0125" x2="54.6344" y2="38.0125" gradientTransform="matrix(1.0938 0 0 -1.0938 138 76.5625)">
			<stop  offset="0" style="stop-color:#5357FF"/>
			<stop  offset="0.2407" style="stop-color:#6D46FF"/>
			<stop  offset="0.4912" style="stop-color:#813AFF"/>
			<stop  offset="0.7439" style="stop-color:#8D32FF"/>
			<stop  offset="1" style="stop-color:#9130FF"/>
		</linearGradient>
		<path id="XMLID_396_" display="inline" fill="none" stroke="url(#XMLID_20_)" stroke-width="2" stroke-miterlimit="10" d="
			M196.6,55.8l-2.8,2.8c-0.1,0.1-0.2,0.1-0.3,0l-7.1-7.2c-0.1-0.1-0.1-0.2,0-0.3l2.8-2.8c0.1-0.1,0.2-0.1,0.3,0l7.2,7.2
			C196.7,55.6,196.7,55.8,196.6,55.8z M184.7,46.7l2.5,2.5 M172.3,17.1c-9.6,0-17.5,7.9-17.5,17.5s7.9,17.5,17.5,17.5
			s17.5-7.9,17.5-17.5S182.1,17.1,172.3,17.1z M163.4,55.6c2.7,1.2,5.8,1.9,9,1.9 M151.1,25.4c-1.2,2.7-1.9,5.8-1.9,9
			c0,3.2,0.7,6.2,1.9,9 M181.3,13.1c-2.7-1.2-5.8-1.9-9-1.9s-6.2,0.7-9,1.9 M195.4,34.3c0-3.2-0.7-6.2-1.9-9 M172.3,21.3
			c-7.3,0-13.2,5.9-13.2,13.2s5.9,13.2,13.2,13.2s13.2-5.9,13.2-13.2S179.7,21.3,172.3,21.3z M176.9,46.9c2.1-3.3,3.3-7.7,3.3-12.5
			c0-4.8-1.2-9.1-3.2-12.4 M168.1,22.2c-2,3.3-3.3,7.5-3.3,12.4s1.2,9.2,3.3,12.5 M172.3,47.8V21.3 M159.1,34.6h26.5 M184,28.2
			h-22.9 M160.8,40.8h23.1"/>
	</g>
	<g id="XMLID_664_" display="none">
		<path id="XMLID_691_" display="inline" fill="#FFFFFF" d="M192.4,12.6h-38.7c-0.1,0-0.2,0.1-0.2,0.2v43.8h39.3V12.8
			C192.6,12.7,192.5,12.6,192.4,12.6z"/>
		<path id="XMLID_688_" display="inline" fill="#CDDCFF" d="M180.4,36c0-2.5-2.1-4.7-4.7-4.7c-1.3,0-2.5,0.5-3.3,1.4
			c-0.9-0.9-2-1.4-3.3-1.4c-2.5,0-4.7,2.1-4.7,4.7c0,1.2,0.5,2.4,1.3,3.2l6.7,6.6l6.8-6.8c0.1-0.1,0.2-0.3,0.2-0.3
			C180.1,38,180.4,37.1,180.4,36z"/>
		<path id="XMLID_656_" display="inline" fill="#DDCDFF" d="M192.4,12.6h-38.7c-0.1,0-0.2,0-0.2,0V19h39.3v-6.5
			C192.6,12.6,192.5,12.6,192.4,12.6z"/>
		<path id="XMLID_666_" display="inline" fill="#FFFFFF" d="M192.3,55.1l-2.2,2.2c-0.1,0.1-0.2,0.1-0.3,0l-5.8-5.7
			c-0.1-0.1-0.1-0.2,0-0.3l2.2-2.2c0.1-0.1,0.2-0.1,0.3,0l5.8,5.8C192.4,54.9,192.4,55.1,192.3,55.1z"/>
		
			<linearGradient id="XMLID_21_" gradientUnits="userSpaceOnUse" x1="13.1" y1="37.9625" x2="50.9612" y2="37.9625" gradientTransform="matrix(1.0938 0 0 -1.0938 138 76.5625)">
			<stop  offset="0" style="stop-color:#5357FF"/>
			<stop  offset="0.2407" style="stop-color:#6D46FF"/>
			<stop  offset="0.4912" style="stop-color:#813AFF"/>
			<stop  offset="0.7439" style="stop-color:#8D32FF"/>
			<stop  offset="1" style="stop-color:#9130FF"/>
		</linearGradient>
		<path id="XMLID_493_" display="inline" fill="none" stroke="url(#XMLID_21_)" stroke-width="2" stroke-miterlimit="10" d="
			M179.7,38.7c0,0-0.2,0.2-0.2,0.3l-6.8,6.8l-6.7-6.6c-0.8-0.9-1.3-2-1.3-3.2c0-2.5,2.1-4.7,4.7-4.7c1.3,0,2.5,0.5,3.3,1.4
			c0.9-0.9,2-1.4,3.3-1.4c2.5,0,4.7,2.1,4.7,4.7C180.5,37.1,180.2,38,179.7,38.7z M192.6,48.9V12.8c0-0.1-0.1-0.2-0.2-0.2h-38.7
			c-0.1,0-0.2,0.1-0.2,0.2v43.8 M192.6,18.8h-39 M158.6,15.9H156 M160.5,15.9h2.5 M167.5,15.9H165 M192.3,54.9l-5.8-5.8
			c-0.1-0.1-0.2-0.1-0.3,0l-2.2,2.2c-0.1,0.1-0.1,0.2,0,0.3l5.8,5.8c0.1,0.1,0.2,0.1,0.3,0l2.2-2.2
			C192.4,55.1,192.4,54.9,192.3,54.9z M182.6,47.8l2,2 M172.6,23.6c-7.9,0-14.2,6.3-14.2,14.2s6.3,14.2,14.2,14.2
			s14.2-6.3,14.2-14.2S180.4,23.6,172.6,23.6z"/>
	</g>
	<g id="XMLID_638_" display="none">
		<path id="XMLID_603_" display="inline" fill="#FFFFFF" d="M170,20.3h27.2l0,0v27.8l0,0H192v7.8c0,0.2-0.2,0.3-0.4,0.2l-9.8-7.9
			H157l0,0V32.8V20.3H170z"/>
		<path id="XMLID_643_" display="inline" fill="#CDDCFF" d="M160.3,36.1V23.6h13.1h24v-3.3l0,0H170h-13.1v12.5v15.3l0,0h3.3v-12
			H160.3z"/>
		<path id="XMLID_620_" display="inline" fill="#FFFFFF" d="M162.1,30.7l-4.6-2.5l-4.7,2.4c-0.5,0.3-1.2-0.2-1.1-0.9l0.9-5.1
			l-3.7-3.7c-0.4-0.4-0.1-1.2,0.4-1.2l5.1-0.7l2.4-4.7c0.3-0.5,1.1-0.5,1.4,0l2.3,4.7l5.1,0.8c0.7,0.1,0.9,0.9,0.4,1.3l-3.8,3.6
			l0.9,5.1C163.3,30.5,162.6,31,162.1,30.7z"/>
		
			<linearGradient id="XMLID_22_" gradientUnits="userSpaceOnUse" x1="8.6919" y1="38.0179" x2="55.2483" y2="38.0179" gradientTransform="matrix(1.0938 0 0 -1.0938 138 76.5625)">
			<stop  offset="0" style="stop-color:#5357FF"/>
			<stop  offset="0.2407" style="stop-color:#6D46FF"/>
			<stop  offset="0.4912" style="stop-color:#813AFF"/>
			<stop  offset="0.7439" style="stop-color:#8D32FF"/>
			<stop  offset="1" style="stop-color:#9130FF"/>
		</linearGradient>
		<path id="XMLID_407_" display="inline" fill="none" stroke="url(#XMLID_22_)" stroke-width="2" stroke-miterlimit="10" d="
			M170,20.2h27.2l0,0v27.7l0,0H192v7.9c0,0.2-0.2,0.3-0.4,0.2l-9.8-7.9H157l0,0V32.8 M163.2,29.9l-0.9-5.1l3.8-3.6
			c0.4-0.4,0.2-1.2-0.4-1.3l-5.1-0.8l-2.3-4.7c-0.3-0.5-1.1-0.5-1.4,0l-2.4,4.7l-5.1,0.7c-0.7,0.1-0.9,0.9-0.4,1.3l3.7,3.7l-0.9,5.1
			c-0.1,0.7,0.5,1.1,1.1,0.9l4.6-2.4l4.6,2.5C162.6,31,163.3,30.5,163.2,29.9z M191.7,27.1h-23.5 M168.2,33.4h23.5 M191.7,39.6
			h-23.5"/>
	</g>
	<g id="XMLID_573_" display="none">
		<g id="XMLID_647_" display="inline">
			<path id="XMLID_649_" fill="#FFFFFF" d="M182.4,23.4c0-5.1-4.2-9.4-9.4-9.4c-5.1,0-9.4,4.2-9.4,9.4l0.9,11.3
				c0.1,1.5,1,2.8,2.4,3.6l4.6,3h3.1l4.7-3c1.3-0.7,2.3-2.1,2.4-3.6L182.4,23.4z"/>
			<path id="XMLID_648_" fill="#FFFFFF" d="M190.9,47l-12.5-4.3v-3.6h-10.9v3.6L155.1,47c-0.9,0.3-1.5,1.2-1.5,2.1V59h38.8v-9.8
				C192.5,48.2,191.8,47.4,190.9,47z"/>
		</g>
		<path id="XMLID_637_" display="inline" fill="#E8DDFF" d="M170.7,51.3l-1.1-3.5l0,0l3-2.2l0,0l3,2.2l0,0l-1.1,3.5H170.7z"/>
		<polygon id="XMLID_611_" display="inline" fill="#E8DDFF" points="170.9,51.3 169.7,59.1 175.5,59.1 174.3,51.3 		"/>
		<path id="XMLID_605_" display="inline" fill="#CDDCFF" d="M164.1,30.8L164.1,30.8c-2.2,0.2-4-1.4-4.3-3.5l0,0
			c-0.2-2.2,1.4-4,3.5-4.3l0,0L164.1,30.8z"/>
		<path id="XMLID_604_" display="inline" fill="#CDDCFF" d="M181.3,30.8L181.3,30.8c2.2,0.2,4-1.4,4.3-3.5l0,0
			c0.2-2.2-1.4-4-3.5-4.3l0,0L181.3,30.8z"/>
		
			<linearGradient id="XMLID_23_" gradientUnits="userSpaceOnUse" x1="13.3625" y1="38.4224" x2="50.0348" y2="38.4224" gradientTransform="matrix(1.0938 0 0 -1.0938 138 76.5625)">
			<stop  offset="0" style="stop-color:#5357FF"/>
			<stop  offset="0.2407" style="stop-color:#6D46FF"/>
			<stop  offset="0.4912" style="stop-color:#813AFF"/>
			<stop  offset="0.7439" style="stop-color:#8D32FF"/>
			<stop  offset="1" style="stop-color:#9130FF"/>
		</linearGradient>
		<path id="XMLID_412_" display="inline" fill="none" stroke="url(#XMLID_23_)" stroke-width="2" stroke-miterlimit="10" d="
			M153.8,59.1v-9.8c0-1,0.5-1.8,1.5-2.1l12.1-4.2v-4.7 M191.6,59.1v-9.8c0-1-0.5-1.8-1.5-2.1L177.9,43v-4.7 M181.9,23
			c0-5-4.2-9.2-9.2-9.2s-9.2,4.2-9.2,9.2l0.9,11c0.1,1.5,1,2.8,2.3,3.5l4.5,3h3l4.6-3c1-0.5,1.8-1.4,2.1-2.5c0.1-0.3,0.1-0.7,0.2-1
			L181.9,23z M174.5,51.3l1.1-3.5l0,0l-3-2.2l0,0l-3,2.2l0,0l1.1,3.5H174.5z M170.7,51.3l-1.2,7.7 M174.2,51.3l1.2,7.7 M167.3,43.1
			l3.4,3.9 M174.8,46.9l3.4-3.9 M184.4,24.1v-1.3c0-6.5-5.3-11.7-11.7-11.7l0,0c-6.5,0-11.7,5.3-11.7,11.7v1.3 M163.4,23L163.4,23
			c-2.2,0.2-3.7,2.1-3.5,4.3l0,0c0.2,2.2,2.1,3.7,4.3,3.5l0,0L163.4,23z M181.3,30.8L181.3,30.8c2.2,0.2,4-1.4,4.3-3.5l0,0
			c0.2-2.2-1.4-4-3.5-4.3l0,0L181.3,30.8z M173.1,36.2h10.4l0.9-1.4v-4.9"/>
	</g>
	<g id="XMLID_572_" display="none">
		<path id="XMLID_452_" display="inline" fill="#FFFFFF" d="M181.4,25.9c0,6.2-7.8,13.5-8.6,14.3c0,0-0.1,0-0.2,0
			c-1-0.9-8.8-8.1-8.6-14.3c0-4.8,3.9-8.8,8.8-8.8C177.5,17.2,181.3,21.1,181.4,25.9z M172.7,21.1c-2.6,0-4.8,2.2-4.8,4.8
			s2.2,4.8,4.8,4.8s4.8-2.2,4.8-4.8S175.3,21.1,172.7,21.1z"/>
		<g id="XMLID_640_" display="inline">
			<path id="XMLID_642_" fill="#E8DDFF" d="M172.7,17.2c-0.3,0-0.8,0-1.1,0.1c4.3,0.5,7.7,4.2,7.7,8.6c0,5.3-5.3,11-7.7,13.3
				c0.4,0.4,0.9,0.8,1,1c0,0,0.1,0,0.2,0c1-0.9,8.8-8.1,8.6-14.3C181.3,21.1,177.5,17.2,172.7,17.2z"/>
		</g>
		
			<linearGradient id="XMLID_24_" gradientUnits="userSpaceOnUse" x1="14.1" y1="38.5" x2="49.9" y2="38.5" gradientTransform="matrix(1.0938 0 0 -1.0938 138 76.5625)">
			<stop  offset="0" style="stop-color:#5357FF"/>
			<stop  offset="0.2407" style="stop-color:#6D46FF"/>
			<stop  offset="0.4912" style="stop-color:#813AFF"/>
			<stop  offset="0.7439" style="stop-color:#8D32FF"/>
			<stop  offset="1" style="stop-color:#9130FF"/>
		</linearGradient>
		<path id="XMLID_445_" display="inline" fill="none" stroke="url(#XMLID_24_)" stroke-width="2" stroke-miterlimit="10" d="
			M154.5,58.7c0-10.2,8.3-18.5,18.5-18.5s18.5,8.3,18.5,18.5 M183.9,58.7c0-6.7-1.8-12.7-4.5-17.3 M167,41.5
			c-2.8,4.5-4.5,10.6-4.5,17.3 M173,59V40.4 M189.3,50h-31.9 M172.7,17.1c-4.8,0-8.8,3.9-8.8,8.8c0,6.2,7.8,13.5,8.6,14.3
			c0,0,0.1,0,0.2,0c1-0.9,8.8-8.1,8.6-14.3C181.3,20.9,177.5,17.1,172.7,17.1z M172.7,20.9c-2.6,0-4.8,2.2-4.8,4.8s2.2,4.8,4.8,4.8
			s4.8-2.2,4.8-4.8S175.3,20.9,172.7,20.9z M159.8,32.8c0.2,0.4,0.4,0.9,0.8,1.2 M158.2,28.8c0.1,0.4,0.2,1,0.3,1.4 M158,24.3
			c0,0.5-0.1,1-0.1,1.5 M159.1,20c-0.2,0.4-0.3,0.9-0.5,1.3 M161.3,16.4c-0.3,0.3-0.5,0.8-0.9,1.1 M164.5,13.6
			c-0.4,0.2-0.8,0.5-1.1,0.9 M168.3,11.7c-0.4,0.1-0.9,0.3-1.3,0.5 M172.7,11c-0.5,0-1,0-1.5,0.1 M177,11.7c-0.4-0.1-1-0.2-1.4-0.3
			 M180.9,13.6c-0.4-0.2-0.8-0.5-1.2-0.8 M184,16.4c-0.3-0.3-0.7-0.8-1-1.1 M186.2,20c-0.2-0.4-0.4-0.9-0.7-1.3 M187.3,24.3
			c0-0.5-0.1-1-0.2-1.4 M187.1,28.8c0.1-0.4,0.2-1,0.2-1.4 M185.6,32.8c0.2-0.4,0.4-0.9,0.7-1.3"/>
	</g>
	<g id="XMLID_650_" display="none">
		<circle id="XMLID_676_" display="inline" fill="#DDCDFF" cx="173" cy="35" r="13.3"/>
		
			<linearGradient id="XMLID_25_" gradientUnits="userSpaceOnUse" x1="9" y1="38" x2="55" y2="38" gradientTransform="matrix(1.0938 0 0 -1.0938 138 76.5625)">
			<stop  offset="0" style="stop-color:#5357FF"/>
			<stop  offset="0.2407" style="stop-color:#6D46FF"/>
			<stop  offset="0.4912" style="stop-color:#813AFF"/>
			<stop  offset="0.7439" style="stop-color:#8D32FF"/>
			<stop  offset="1" style="stop-color:#9130FF"/>
		</linearGradient>
		<path id="XMLID_464_" display="inline" fill="none" stroke="url(#XMLID_25_)" stroke-width="2" stroke-miterlimit="10" d="
			M192.3,54.1l-7-7 M190.7,46.6h-6.1v6.1 M156.6,35h3.4c1.5,0,2.7-1.2,2.7-2.7l0,0c0-1.5-1.2-2.7-2.7-2.7h-6.1 M155.7,40.4h6.7
			c1.5,0,2.7-1.2,2.7-2.7l0,0c0-1.5-1.2-2.7-2.7-2.7h-5.8 M156.8,40.4V29.5 M169.4,29.5v7.1c0,2.1,1.8,3.8,3.8,3.8l0,0
			c2.1,0,3.8-1.8,3.8-3.8v-7.1 M182.1,29.2v4c0,0.3,0.2,0.7,0.4,0.9l3.3,2.1 M186.1,36.1l3.3-2.1c0.3-0.2,0.4-0.5,0.4-0.9v-4
			 M186,35.8v5.6 M195.2,44.4c1.2-3,1.9-6.1,1.9-9.4s-0.7-6.5-1.9-9.4c-1.2-2.8-3-5.5-5.1-7.7s-4.8-3.9-7.7-5.1
			c-3-1.2-6.1-1.9-9.4-1.9s-6.5,0.7-9.4,1.9c-2.8,1.2-5.5,3-7.7,5.1s-3.9,4.8-5.1,7.7c-1.2,3-1.9,6.1-1.9,9.4s0.7,6.5,1.9,9.4
			c1.2,2.8,3,5.5,5.1,7.7s4.8,3.9,7.7,5.1c3,1.2,6.1,1.9,9.4,1.9s6.5-0.7,9.4-1.9"/>
	</g>
	<g id="XMLID_644_" display="none">
		<polyline id="XMLID_639_" display="inline" fill="#FFFFFF" points="159.4,52.1 155,46.4 154.7,27.9 		"/>
		<path id="XMLID_645_" display="inline" fill="#FFFFFF" d="M154.7,22.4v-3.7c0-0.1,0.1-0.2,0.2-0.2h42.2c0.1,0,0.2,0.1,0.2,0.2
			v27.6c0,0.1-0.1,0.2-0.2,0.2h-31.5h-6.2l-4.5-5.6L154.7,22.4z"/>
		<path id="XMLID_670_" display="inline" fill="#DDCDFF" d="M197.3,18.6H155c-0.1,0-0.2,0.1-0.2,0.2V21c0-0.1,0.1-0.2,0.2-0.2h42.2
			c0.1,0,0.2,0.1,0.2,0.2v-2.2C197.5,18.6,197.4,18.6,197.3,18.6z"/>
		<path id="XMLID_609_" display="inline" fill="#FFFFFF" d="M154.7,27.9v-3.7c0-0.1,0.1-0.2,0.2-0.2h42.2c0.1,0,0.2,0.1,0.2,0.2
			v27.6c0,0.1-0.1,0.2-0.2,0.2h-31.5h-6.2l-4.5-5.6L154.7,27.9z"/>
		<path id="XMLID_646_" display="inline" fill="#DDE7FF" d="M182.4,37.4v-5.5c0-0.1,0.1-0.2,0.2-0.2h8.5c0.1,0,0.2,0.1,0.2,0.2v5.5
			c0,0.1-0.1,0.2-0.2,0.2h-8.5C182.5,37.6,182.4,37.5,182.4,37.4z"/>
		<path id="XMLID_641_" display="inline" fill="#FFFFFF" d="M165.3,48l-5.9,4h-0.1l-5.9-4c-3.1-2.1-4.9-5.6-4.9-9.3v-8.5
			c0-0.2,0.1-0.3,0.3-0.3h21.1c0.2,0,0.3,0.1,0.3,0.3v8.5C170.3,42.4,168.4,45.9,165.3,48z"/>
		<path id="XMLID_668_" display="inline" fill="#DDCDFF" d="M159.3,32.2c-2.4,0-4.5,1.3-5.7,3.2c1-0.7,2.2-1,3.5-1
			c3.7,0,6.8,3.1,6.8,6.8c0,1.3-0.3,2.5-1,3.5c2-1.2,3.2-3.3,3.2-5.7C166.1,35.2,163,32.2,159.3,32.2z"/>
		
			<linearGradient id="XMLID_26_" gradientUnits="userSpaceOnUse" x1="8.6" y1="38" x2="55.3326" y2="38" gradientTransform="matrix(1.0938 0 0 -1.0938 138 76.5625)">
			<stop  offset="0" style="stop-color:#5357FF"/>
			<stop  offset="0.2407" style="stop-color:#6D46FF"/>
			<stop  offset="0.4912" style="stop-color:#813AFF"/>
			<stop  offset="0.7439" style="stop-color:#8D32FF"/>
			<stop  offset="1" style="stop-color:#9130FF"/>
		</linearGradient>
		<path id="XMLID_477_" display="inline" fill="none" stroke="url(#XMLID_26_)" stroke-width="2" stroke-miterlimit="10" d="
			M154.7,21.1v-3c0-0.1,0.1-0.2,0.2-0.2h42.2c0.1,0,0.2,0.1,0.2,0.2v3 M165.7,52.1h31.6c0.1,0,0.2-0.1,0.2-0.2V24.3
			c0-0.1-0.1-0.2-0.2-0.2H155c-0.1,0-0.2,0.1-0.2,0.2V28 M192.5,45.7H188 M185.8,45.7h-4.5 M176.2,45.7h3 M182.7,37.6h8.5
			c0.1,0,0.2-0.1,0.2-0.2v-5.5c0-0.1-0.1-0.2-0.2-0.2h-8.5c-0.1,0-0.2,0.1-0.2,0.2v5.5C182.4,37.5,182.5,37.6,182.7,37.6z M155,38.7
			l2.7,2.7l5.1-5.1 M170.3,38.7v-8.5c0-0.2-0.1-0.3-0.3-0.3h-21.1c-0.2,0-0.3,0.1-0.3,0.3v8.5c0,3.7,1.9,7.2,4.9,9.3l5.9,4h0.1
			l5.9-4C168.4,45.9,170.3,42.4,170.3,38.7z M159.3,32.2c-3.7,0-6.8,3.1-6.8,6.8c0,3.7,3.1,6.8,6.8,6.8s6.8-3.1,6.8-6.8
			C166.1,35.2,163,32.2,159.3,32.2z"/>
	</g>
	<g id="XMLID_651_" display="none">
		<path id="XMLID_673_" display="inline" fill="#FFFFFF" d="M154.6,52l1.8-9.6c-1-2.3-1.6-4.8-1.6-7.4c0-10.2,8.2-18.4,18.4-18.4
			s18.4,8.2,18.4,18.4s-8.2,18.4-18.4,18.4c-3.6,0-6.9-1.1-9.7-2.8L154.6,52z"/>
		<path id="XMLID_690_" display="inline" fill="#CDDCFF" d="M173.1,16.4c-5.9,0-11.2,2.8-14.5,7.1c3.1-2.4,7-3.8,11.3-3.8
			c10.2,0,18.4,8.2,18.4,18.4c0,4.3-1.4,8.1-3.8,11.3c4.4-3.4,7.1-8.6,7.1-14.5C191.5,24.6,183.3,16.4,173.1,16.4z"/>
		
			<linearGradient id="XMLID_27_" gradientUnits="userSpaceOnUse" x1="9.3" y1="38" x2="54.7483" y2="38" gradientTransform="matrix(1.0938 0 0 -1.0938 138 76.5625)">
			<stop  offset="0" style="stop-color:#5357FF"/>
			<stop  offset="0.2407" style="stop-color:#6D46FF"/>
			<stop  offset="0.4912" style="stop-color:#813AFF"/>
			<stop  offset="0.7439" style="stop-color:#8D32FF"/>
			<stop  offset="1" style="stop-color:#9130FF"/>
		</linearGradient>
		<path id="XMLID_485_" display="inline" fill="none" stroke="url(#XMLID_27_)" stroke-width="2" stroke-miterlimit="10" d="
			M154.6,51.8l1.8-9.6c-1-2.3-1.6-4.8-1.6-7.4c0-10.2,8.2-18.4,18.4-18.4s18.4,8.2,18.4,18.4s-8.2,18.4-18.4,18.4
			c-3.6,0-6.9-1.1-9.7-2.8L154.6,51.8z M168.2,38.6h-5.5c-0.3,0-0.5-0.2-0.5-0.5v-1.3c0-0.4,0.2-0.8,0.5-1l4-3
			c0.3-0.3,0.5-0.8,0.5-1.2V31c0-0.7-0.5-1.1-1.1-1.1h-3c-0.7,0-1.1,0.5-1.1,1.1l0,0v0.4 M174.1,39.4v-9.5l0,0h-1l0,0l-4.3,5.1v0.1
			h7.7 M180.3,39.4v-7.7 M184,39.4v-2.7c0-0.5-0.4-1.1-1.1-1.1h-2.6 M186.3,15.2c-0.7-0.4-1.3-0.9-2-1.2s-1.4-0.7-2.1-1
			c-0.8-0.3-1.4-0.5-2.2-0.8 M194,23.6c-0.3-0.7-0.8-1.3-1.2-2c-0.4-0.7-0.9-1.2-1.4-1.9c-0.4-0.5-1-1.2-1.5-1.6 M196.7,32.6
			c-0.1-0.8-0.2-1.6-0.3-2.4c-0.1-0.8-0.3-1.5-0.5-2.3 M195.9,42.1c0.2-0.8,0.4-1.5,0.5-2.3s0.3-1.5,0.3-2.4 M191.5,50.2
			c0.4-0.5,1-1.2,1.4-1.9c0.4-0.7,0.9-1.3,1.2-2 M186.3,54.8c0.7-0.4,1.2-0.9,1.9-1.4 M180.1,57.8c0.8-0.2,1.4-0.5,2.2-0.8
			 M173.1,58.8c0.9,0,1.6,0,2.4-0.1 M173.1,11.2c-6.6,0-12.6,2.6-16.8,7c-4.3,4.3-7,10.3-7,16.8"/>
	</g>
	<g id="XMLID_694_" display="none">
		<path id="XMLID_665_" display="inline" fill="#FFFFFF" d="M195.4,56.7h-44.6c-0.2,0-0.3-0.1-0.3-0.3V25.8c0-0.2,0.1-0.3,0.3-0.3
			h44.6c0.2,0,0.3,0.1,0.3,0.3v30.5C195.8,56.5,195.6,56.7,195.4,56.7z"/>
		<path id="XMLID_699_" display="inline" fill="#CDDCFF" d="M197.4,58.1h-48.7c-0.1,0-0.2-0.1-0.2-0.2l-1.1-5.5
			c0-0.1,0.1-0.3,0.2-0.3h22.1l1.1,1.1h4.5l1.1-1.1h22c0.1,0,0.3,0.1,0.2,0.3l-1.1,5.5C197.6,58.1,197.5,58.1,197.4,58.1z"/>
		<path id="XMLID_696_" display="inline" fill="#FFFFFF" d="M179.8,11.9h-20.2c-0.1,0-0.2,0.1-0.2,0.2v37.4h27.9V19.4L179.8,11.9z"
			/>
		<path id="XMLID_697_" display="inline" fill="#DDCDFF" d="M179.3,12v7.2c0,0.1,0.1,0.2,0.2,0.2h7.2L179.3,12z"/>
		
			<linearGradient id="XMLID_28_" gradientUnits="userSpaceOnUse" x1="7.5" y1="37.95" x2="56.3273" y2="37.95" gradientTransform="matrix(1.0938 0 0 -1.0938 138 76.5625)">
			<stop  offset="0" style="stop-color:#5357FF"/>
			<stop  offset="0.2407" style="stop-color:#6D46FF"/>
			<stop  offset="0.4912" style="stop-color:#813AFF"/>
			<stop  offset="0.7439" style="stop-color:#8D32FF"/>
			<stop  offset="1" style="stop-color:#9130FF"/>
		</linearGradient>
		<path id="XMLID_520_" display="inline" fill="none" stroke="url(#XMLID_28_)" stroke-width="2" stroke-miterlimit="10" d="
			M197.3,58.1h-48.7c-0.1,0-0.2-0.1-0.2-0.2l-1.1-5.5c0-0.1,0.1-0.3,0.2-0.3h22l1.1,1.1h4.6l1.1-1.1h22c0.1,0,0.3,0.1,0.2,0.3
			l-1.1,5.5C197.4,58.1,197.4,58.1,197.3,58.1z M155.8,25.5h-5.4c-0.2,0-0.3,0.1-0.3,0.3v23.7 M195.8,49.5V25.8
			c0-0.2-0.1-0.3-0.3-0.3h-5.7 M186.8,49.5V19.5l-7.4-7.4h-20.1c-0.1,0-0.2,0.1-0.2,0.2v37.4 M179.3,12v7.2c0,0.1,0.1,0.2,0.2,0.2
			h7.2 M182.5,26.1h-19.3v22.2h19.3V26.1z M163.3,31.7h19.3 M163.3,35.9h19.3 M182.6,39.9h-19.3 M163.5,44h19.3 M168.6,25.5v22.9
			 M162.3,20.9h6.3"/>
	</g>
</g>
<g id="Icon_text" display="none">
	<g id="XMLID_59_" display="inline">
		
			<text id="XMLID_206_" transform="matrix(1 0 0 1 -38.6109 -83.7959)" fill="#5357FF" font-family="'Montserrat-Bold'" font-size="7.6563">STORE</text>
	</g>
	<g id="XMLID_64_" display="inline">
		
			<text id="XMLID_207_" transform="matrix(1 0 0 1 43.3906 -83.7954)" fill="#5357FF" font-family="'Montserrat-Bold'" font-size="7.6563">M-COMMERCE</text>
	</g>
	
		<text transform="matrix(1 0 0 1 155.5595 -83.7954)" display="inline" fill="#5357FF" font-family="'Montserrat-Bold'" font-size="7.6563">PAY PER </text>
	
		<text transform="matrix(1 0 0 1 161.4658 -76.1392)" display="inline" fill="#5357FF" font-family="'Montserrat-Bold'" font-size="7.6563">CLICK</text>
	<g id="XMLID_143_" display="inline">
		<text transform="matrix(1 0 0 1 263.373 -83.7954)" fill="#5357FF" font-family="'Montserrat-Bold'" font-size="7.6563">NEW</text>
		<text transform="matrix(1 0 0 1 253.4199 -76.1392)" fill="#5357FF" font-family="'Montserrat-Bold'" font-size="7.6563">PRODUCT</text>
	</g>
	<g id="XMLID_164_" display="inline">
		
			<text id="XMLID_227_" transform="matrix(1 0 0 1 352.6055 -83.7954)" fill="#5357FF" font-family="'Montserrat-Bold'" font-size="7.6563">WISH LIST</text>
	</g>
	<g id="XMLID_181_" display="inline">
		
			<text id="XMLID_266_" transform="matrix(1 0 0 1 -46.8355 21.4502)" fill="#5357FF" font-family="'Montserrat-Bold'" font-size="7.6563">DISCOUNT</text>
	</g>
	<g id="XMLID_192_" display="inline">
		<text transform="matrix(1 0 0 1 52.7788 21.4502)" fill="#5357FF" font-family="'Montserrat-Bold'" font-size="7.6563">SHOPPING</text>
		<text transform="matrix(1 0 0 1 65.3569 29.1064)" fill="#5357FF" font-family="'Montserrat-Bold'" font-size="7.6563">BAG</text>
	</g>
	<g id="XMLID_238_" display="inline">
		<text transform="matrix(1 0 0 1 153.8486 21.4502)" fill="#5357FF" font-family="'Montserrat-Bold'" font-size="7.6563">PAYMENT</text>
		<text transform="matrix(1 0 0 1 155.8174 29.1064)" fill="#5357FF" font-family="'Montserrat-Bold'" font-size="7.6563">METHOD</text>
	</g>
	<g id="XMLID_279_" display="inline">
		<text transform="matrix(1 0 0 1 257.4053 21.4502)" fill="#5357FF" font-family="'Montserrat-Bold'" font-size="7.6563">ONLINE</text>
		<text transform="matrix(1 0 0 1 251.8272 29.1064)" fill="#5357FF" font-family="'Montserrat-Bold'" font-size="7.6563">SHOPPING</text>
	</g>
	<g id="XMLID_304_" display="inline">
		
			<text id="XMLID_303_" transform="matrix(1 0 0 1 355.0742 21.4502)" fill="#5357FF" font-family="'Montserrat-Bold'" font-size="7.6563">GIFTBOX</text>
	</g>
	<g id="XMLID_317_" display="inline">
		<text transform="matrix(1 0 0 1 -46.7524 125.417)" fill="#5357FF" font-family="'Montserrat-Bold'" font-size="7.6563">SHOPPING</text>
		<text transform="matrix(1 0 0 1 -36.5805 133.0733)" fill="#5357FF" font-family="'Montserrat-Bold'" font-size="7.6563">CART</text>
	</g>
	<g id="XMLID_318_" display="inline">
		<text transform="matrix(1 0 0 1 58.3657 125.417)" fill="#5357FF" font-family="'Montserrat-Bold'" font-size="7.6563">ADD TO</text>
		<text transform="matrix(1 0 0 1 62.8501 133.0733)" fill="#5357FF" font-family="'Montserrat-Bold'" font-size="7.6563">CART</text>
	</g>
	<g id="XMLID_357_" display="inline">
		
			<text id="XMLID_420_" transform="matrix(1 0 0 1 153.8364 125.416)" fill="#5357FF" font-family="'Montserrat-Bold'" font-size="7.6563">DELIVERY</text>
	</g>
	<g id="XMLID_358_" display="inline">
		
			<text id="XMLID_421_" transform="matrix(1 0 0 1 248.7002 125.417)" fill="#5357FF" font-family="'Montserrat-Bold'" font-size="7.6563">BEST OFFER</text>
	</g>
	<g id="XMLID_366_" display="inline">
		<text transform="matrix(1 0 0 1 356.6719 125.416)" fill="#5357FF" font-family="'Montserrat-Bold'" font-size="7.6563">ONLINE</text>
		<text transform="matrix(1 0 0 1 351.0938 133.0723)" fill="#5357FF" font-family="'Montserrat-Bold'" font-size="7.6563">DISCOUNT</text>
	</g>
	<g id="XMLID_373_" display="inline">
		
			<text id="XMLID_680_" transform="matrix(1 0 0 1 -49.9863 230.5996)" fill="#5357FF" font-family="'Montserrat-Bold'" font-size="7.6563">PACKAGING</text>
	</g>
	<g id="XMLID_398_" display="inline">
		<text transform="matrix(1 0 0 1 56.8042 230.5996)" fill="#5357FF" font-family="'Montserrat-Bold'" font-size="7.6563">SEARCH</text>
		<text transform="matrix(1 0 0 1 53.6323 238.2559)" fill="#5357FF" font-family="'Montserrat-Bold'" font-size="7.6563">PRODUCT</text>
	</g>
	<g id="XMLID_408_" display="inline">
		
			<text id="XMLID_687_" transform="matrix(1 0 0 1 157.4199 230.5996)" fill="#5357FF" font-family="'Montserrat-Bold'" font-size="7.6563">REVIEW</text>
	</g>
	<g id="XMLID_413_" display="inline">
		<text transform="matrix(1 0 0 1 249.8242 230.5996)" fill="#5357FF" font-family="'Montserrat-Bold'" font-size="7.6563">CUSTOMER</text>
		<text transform="matrix(1 0 0 1 253.6523 238.2559)" fill="#5357FF" font-family="'Montserrat-Bold'" font-size="7.6563">SUPPORT</text>
	</g>
	<g id="XMLID_455_" display="inline">
		<text transform="matrix(1 0 0 1 361.1416 230.5996)" fill="#5357FF" font-family="'Montserrat-Bold'" font-size="7.6563">SHOP</text>
		<text transform="matrix(1 0 0 1 351.4072 238.2559)" fill="#5357FF" font-family="'Montserrat-Bold'" font-size="7.6563">LOCATION</text>
	</g>
	<g id="XMLID_467_" display="inline">
		
			<text id="XMLID_693_" transform="matrix(1 0 0 1 51.7188 335.2344)" fill="#5357FF" font-family="'Montserrat-Bold'" font-size="7.6563">PURCHASE</text>
	</g>
	<g id="XMLID_478_" display="inline">
		<text transform="matrix(1 0 0 1 -42.0064 335.2354)" fill="#5357FF" font-family="'Montserrat-Bold'" font-size="7.6563">SECURE</text>
		<text transform="matrix(1 0 0 1 -55.1314 342.8916)" fill="#5357FF" font-family="'Montserrat-Bold'" font-size="7.6563">TRANSACTION</text>
	</g>
	<g id="XMLID_492_" display="inline">
		<text transform="matrix(1 0 0 1 148.0103 335.2354)" fill="#5357FF" font-family="'Montserrat-Bold'" font-size="7.6563">CUSTOMERS </text>
		<text transform="matrix(1 0 0 1 156.104 342.8916)" fill="#5357FF" font-family="'Montserrat-Bold'" font-size="7.6563">SERVICE</text>
	</g>
	<g id="XMLID_494_" display="inline">
		<text transform="matrix(1 0 0 1 241.8301 335.2354)" fill="#5357FF" font-family="'Montserrat-Bold'" font-size="7.6563">FIND FAVORITE</text>
		<text transform="matrix(1 0 0 1 252.8769 342.8916)" fill="#5357FF" font-family="'Montserrat-Bold'" font-size="7.6563">PRODUCT</text>
	</g>
	<g id="XMLID_523_" display="inline">
		<text transform="matrix(1 0 0 1 356.3115 335.2354)" fill="#5357FF" font-family="'Montserrat-Bold'" font-size="7.6563">DIGITAL</text>
		<text transform="matrix(1 0 0 1 355.2178 342.8916)" fill="#5357FF" font-family="'Montserrat-Bold'" font-size="7.6563">INVOICE</text>
	</g>
</g>
<g id="headline" display="none">
	<g id="XMLID_1_" display="inline">
		
			<text id="XMLID_702_" transform="matrix(1 0 0 1 269.3623 -212.084)" fill="#5357FF" font-family="'Oswald-Bold'" font-size="12.0313">SHOPPING &amp; E-COMMERCE</text>
	</g>
	<g id="XMLID_4_" display="inline">
		<text transform="matrix(1 0 0 1 -62.9824 -241.8276)" fill="#5357FF" font-family="'Oswald-Bold'" font-size="24.6225">MODERN </text>
		<text transform="matrix(1 0 0 1 -62.9824 -212.2964)" fill="#5357FF" font-family="'Oswald-Bold'" font-size="24.6225">FLAT </text>
		<text transform="matrix(1 0 0 1 -13.2168 -212.2964)" fill="#9130FF" font-family="'Oswald-Light'" font-size="24.6225">LINE</text>
		<text transform="matrix(1 0 0 1 23.9707 -212.2964)" fill="#5357FF" font-family="'Oswald-Light'" font-size="24.6225"> </text>
		<text transform="matrix(1 0 0 1 28.7832 -212.2964)" fill="#5357FF" font-family="'Oswald-Bold'" font-size="24.6225">ICONS</text>
	</g>
</g>
</svg>
