<?xml version="1.0" encoding="utf-8"?>
<!-- Generator: Adobe Illustrator 18.1.1, SVG Export Plug-In . SVG Version: 6.00 Build 0)  -->
<svg version="1.1" id="Layer_1" xmlns="http://www.w3.org/2000/svg" xmlns:xlink="http://www.w3.org/1999/xlink" x="0px" y="0px"
	 viewBox="0 0 346 70" enable-background="new 0 0 346 70" xml:space="preserve">
<g>
	<path fill-rule="evenodd" clip-rule="evenodd" fill="#E6E6E6" d="M84.8,64.6c0,0.4-0.8,0.8-2.3,1.1c-1.5,0.3-3.6,0.6-6.3,0.9
		c-2.7,0.2-5.8,0.4-9.4,0.6c-3.5,0.1-7.4,0.2-11.5,0.2c-4.1,0-7.9-0.1-11.4-0.2c-3.5-0.2-6.7-0.4-9.4-0.6c-2.7-0.2-4.8-0.5-6.3-0.9
		c-1.5-0.3-2.3-0.7-2.3-1.1c0-0.4,0.8-0.7,2.3-1.1c1.5-0.3,3.6-0.6,6.3-0.9c2.7-0.2,5.8-0.4,9.4-0.6c3.5-0.1,7.4-0.2,11.4-0.2
		c4.1,0,7.9,0.1,11.5,0.2c3.6,0.2,6.7,0.4,9.4,0.6c2.7,0.3,4.8,0.6,6.3,0.9C83.9,63.8,84.7,64.2,84.8,64.6"/>
	<path fill-rule="evenodd" clip-rule="evenodd" fill="#759E3F" d="M81.8,24.2c-0.2-0.2-0.3-0.6-0.2-0.9c0.1-0.4,0.1-0.6,0.1-0.6
		c1.3-1,2.4-2.2,3.3-3.4c0.9-1.2,1.6-2.4,2.1-3.5c0.5-1.1,0.8-2.1,1-2.8c0.2-0.7,0.3-1.1,0.3-1.1c-0.2,1.7-0.6,3.2-1.2,4.5
		c-0.6,1.3-1.3,2.4-2.1,3.4c-0.7,0.9-1.4,1.6-2,2.1c-0.5,0.5-0.8,0.7-0.8,0.7c2.3-0.1,4-0.5,5.1-1.3c1.1-0.8,1.9-1.8,2.3-2.9
		c0.3-1.2,0.4-2.3,0.3-3.5c-0.1-1.1-0.3-2.1-0.5-2.9c-0.2-0.8-0.4-1.2-0.4-1.2c-2.2,0.4-3.8,0.8-5,1.5c-1.2,0.6-2,1.3-2.6,2
		c-0.5,0.7-0.8,1.4-0.9,2.1c-0.1,0.6-0.1,1.2,0,1.6c0.1,0.4,0.1,0.6,0.2,0.6c0.5,1.6,0.7,2.8,0.7,3.6c0,0.8-0.2,1.4-0.4,1.7
		c-0.2,0.3-0.3,0.4-0.4,0.4c-0.1-0.8-0.3-1.6-0.7-2.2c-0.4-0.6-0.8-1.1-1.3-1.4c-0.4-0.4-0.7-0.5-0.7-0.5c-1.8-1.5-3.4-3.1-4.7-4.8
		c-1.3-1.7-2.4-3.2-3.2-4.6c-0.8-1.4-1.4-2.6-1.8-3.5c-0.4-0.9-0.6-1.4-0.5-1.4c0.8,2,1.8,3.9,2.9,5.6c1.1,1.7,2.2,3.1,3.4,4.4
		c1.1,1.2,2,2.2,2.8,2.8c0.7,0.7,1.1,1,1.2,1c1.1-1.8,1.5-3.5,1.4-5.1c-0.1-1.5-0.7-2.9-1.6-4.2c-0.9-1.2-2-2.3-3.3-3.3
		c-1.3-0.9-2.6-1.7-3.9-2.4c-1.3-0.6-2.4-1.1-3.2-1.4C66.4,3,66,2.9,66,2.9c-1,2.8-1.4,5.2-1.3,7.2c0.1,2,0.5,3.7,1.3,5
		c0.8,1.3,1.8,2.4,2.9,3.1c1.1,0.8,2.3,1.4,3.4,1.7c1.1,0.4,2.1,0.6,2.9,0.8c0.8,0.1,1.2,0.2,1.2,0.1c1.3,0.4,2.3,0.8,2.8,1.4
		c0.6,0.6,0.9,1.1,1.1,1.5c0.1,0.4,0.2,0.7,0.1,0.7c0,0.2-0.1,0.3-0.1,0.5c-0.4,0.2-1.1,0.5-2.2,1.1c-1.1,0.6-2.4,1.4-3.9,2.4
		c-1.5,1-3.1,2.3-4.7,3.8c-1.6,1.5-3.2,3.2-4.6,5.2c-1.4,2-2.6,4.2-3.6,6.7l2,0.1c2.1-5,5.1-9.3,9-12.8c0.2,0.1,0.4,0.2,0.6,0.5
		c0.2,0.3,0.2,0.4,0.3,0.4c-0.1,1.7,0.1,3.3,0.5,4.7c0.4,1.5,0.9,2.7,1.4,3.6c0.5,0.9,0.7,1.4,0.8,1.4c-1.1-1.5-1.9-3-2.3-4.5
		c-0.4-1.4-0.6-2.6-0.6-3.6c0-0.9-0.1-1.4,0-1.5c-1.1,1.1-1.6,2.2-1.7,3.2c-0.1,1,0.1,2,0.5,2.9c0.5,0.9,1,1.6,1.7,2.3
		c0.7,0.7,1.3,1.2,1.8,1.6c0.5,0.4,0.8,0.5,0.8,0.5c1.1-1.5,1.6-2.8,1.8-3.9c0.2-1.1,0.1-2-0.3-2.7c-0.3-0.7-0.7-1.2-1-1.6
		c-0.4-0.3-0.6-0.5-0.6-0.5c-0.9-0.6-1.6-1.2-2.1-1.6c-0.4-0.5-0.7-0.9-0.9-1.2c-0.1-0.3-0.2-0.5-0.2-0.6c0,0,0,0,0-0.1
		c0.5,0.5,1,0.8,1.6,1c0.5,0.2,1,0.3,1.4,0.3h0.6c1.7,0.1,3.4,0.4,4.9,0.8c1.5,0.4,2.9,0.9,4,1.4c1.2,0.5,2.1,0.9,2.8,1.3
		c0.7,0.4,1,0.6,1,0.6c-1.5-0.9-3-1.6-4.5-2.1c-1.5-0.5-2.8-0.9-4-1.1c-1.2-0.2-2.2-0.4-2.9-0.5c-0.7-0.1-1.1-0.1-1.1-0.1
		c0.6,2,1.5,3.4,2.7,4.3c1.2,0.9,2.4,1.5,3.8,1.7c1.4,0.2,2.7,0.2,4,0c1.3-0.2,2.3-0.4,3.1-0.7c0.8-0.3,1.3-0.4,1.3-0.4
		c-1.3-2.6-2.6-4.5-3.9-5.8c-1.4-1.2-2.7-1.9-4-2.2c-1.3-0.3-2.4-0.3-3.5,0c-1,0.3-1.9,0.6-2.5,1c-0.6,0.4-0.9,0.6-0.9,0.6
		c-0.6,0.3-1.2,0.5-1.7,0.5c-0.5,0-0.9-0.1-1.3-0.2c-0.3-0.2-0.6-0.3-0.7-0.4c2-1.7,4.2-3.2,6.7-4.5c2.5-1.4,5.1-2.4,7.8-3.2
		c2.7-0.8,5.4-1.1,8.1-1c-1.9-0.2-3.6-0.2-5.2,0c-1.6,0.2-3.1,0.5-4.5,0.9C84.4,23.3,83,23.8,81.8,24.2"/>
	<path fill-rule="evenodd" clip-rule="evenodd" fill="#301E2E" d="M59.3,27.4c-0.4,0-0.7-0.1-0.9-0.4c-0.2-0.2-0.4-0.6-0.4-0.9
		c0-0.4,0.1-0.7,0.4-0.9c0.2-0.2,0.6-0.4,0.9-0.4c0.4,0,0.7,0.2,0.9,0.4c0.2,0.2,0.4,0.6,0.4,0.9c0,0.4-0.2,0.7-0.4,0.9
		C59.9,27.3,59.6,27.4,59.3,27.4 M66.5,23.9l0.1-4.9l-3.8,3.1c-1-0.4-2.1-0.6-3.2-0.5c-1.2,0.1-2.3,0.4-3.3,1
		c-1,0.6-1.9,1.4-2.5,2.6c-0.6,1.1-0.9,2.5-0.9,4.2l-4.4,3.5c-2.4,0-4.6-0.5-6.8-1.6c-2.2-1.1-4.2-2.5-6.1-4.3
		c-1.8-1.8-3.4-3.7-4.6-5.9c-1.2-2.1-2-4.2-2.4-6.2c-1.7,2.4-2.8,5.1-3.4,8.2c-0.6,3.1-0.6,6.3,0.1,9.6c0.6,3.3,1.9,6.5,3.8,9.6
		c1.9,3,4.5,5.7,7.8,8.1l-0.2,0.4L14.7,38.2l-8.5,9.8l18.6,3.1l0.1,2.9c4.4,2.3,8.6,3.8,12.8,4.5c4.2,0.6,8,0.6,11.7-0.2
		c3.6-0.8,6.9-2.2,9.7-4.2c2.8-2,5-4.5,6.7-7.6c1.7-3.1,2.6-6.5,2.8-10.3C68.7,32.4,68,28.3,66.5,23.9"/>
	<path fill="#AB3C2D" d="M128.6,61.7c3.8-1.8,5.7-4.5,5.7-8.1c0-3.6-1.5-6.2-4.6-7.9c-2.3-1.3-6.8-2.5-13.4-3.6
		c-3.4-0.6-5.8-1.2-7.1-1.8c-1.6-0.8-2.5-2.1-2.5-3.7c0-3.5,3.5-5.2,10.4-5.2c3.6,0,6.3,0.5,8.1,1.4c2,1,3.1,3.4,3.3,7.2h5
		c-0.1-8.8-5.6-13.3-16.4-13.3c-10.4,0-15.6,3.3-15.6,9.9c0,3.5,1.8,6.2,5.5,7.9c1.7,0.8,4.9,1.7,9.6,2.6c4,0.8,6.5,1.3,7.6,1.6
		c1.8,0.5,3.1,1.1,3.8,1.7c0.7,0.6,1.1,1.7,1.1,3.1c0,1.9-1.1,3.4-3.4,4.3c-1.9,0.9-4.4,1.3-7.5,1.3c-8.5,0-12.7-2.7-12.7-8.1v-2.2
		h-5.2v2.4c0,4.6,2,7.9,5.9,10.1c3.1,1.6,7,2.5,11.9,2.5C122.3,63.7,125.7,63,128.6,61.7L128.6,61.7L128.6,61.7z M163.8,63.4V36.5
		h-5.2v2.9c-2.5-1.9-5.7-2.9-9.5-2.9c-4.6,0-8.2,1.3-10.9,4c-2.5,2.5-3.8,5.8-3.8,9.8c0,3.9,1.2,7.1,3.7,9.6c2.6,2.7,6.2,4,10.7,4
		c4,0,7.2-1,9.7-3v2.5H163.8L163.8,63.4z M158.7,50.3c0,2.6-0.9,4.8-2.7,6.5s-4.1,2.6-7.1,2.6c-3,0-5.3-0.9-6.9-2.6
		c-1.5-1.6-2.3-3.8-2.3-6.4c0-2.7,0.8-4.9,2.3-6.5c1.7-1.8,4-2.7,6.9-2.7c3.2,0,5.6,0.8,7.3,2.5C157.8,45.2,158.7,47.5,158.7,50.3
		L158.7,50.3L158.7,50.3z M194.1,63.4V36.5h-5.2v2.9c-2.5-1.9-5.7-2.9-9.5-2.9c-4.6,0-8.2,1.3-10.9,4c-2.5,2.5-3.8,5.8-3.8,9.8
		c0,3.9,1.2,7.1,3.7,9.6c2.6,2.7,6.2,4,10.7,4c4,0,7.2-1,9.7-3v2.5H194.1L194.1,63.4z M188.9,50.3c0,2.6-0.9,4.8-2.7,6.5
		c-1.8,1.7-4.1,2.6-7.1,2.6c-3,0-5.3-0.9-6.9-2.6c-1.5-1.6-2.3-3.8-2.3-6.4c0-2.7,0.8-4.9,2.3-6.5c1.7-1.8,4-2.7,6.9-2.7
		c3.2,0,5.6,0.8,7.3,2.5C188.1,45.2,188.9,47.5,188.9,50.3L188.9,50.3L188.9,50.3z M222.5,63.4V46.1c0-3.1-1.3-5.6-3.8-7.3
		c-2.2-1.5-5-2.3-8.5-2.3c-3.4,0-6.2,0.8-8.4,2.3v-1.8h-5.2v26.3h5.2V48.8c0-2.3,0.7-4.1,2.2-5.6c1.5-1.4,3.6-2.1,6.3-2.1
		c4.7,0,7.1,1.8,7.1,5.5v16.8H222.5L222.5,63.4z M238.7,42.4v-4.7h-5.4v-7.3h-5.2v7.3h-5.4v4.7h5.4v21h5.2v-21H238.7L238.7,42.4z
		 M264.8,63.4V45.4c0-3.3-1.3-5.8-3.8-7.5c-2.2-1.6-5-2.4-8.5-2.4c-3.4,0-6.2,0.8-8.4,2.4V27h-5.2v36.4h5.2V48.2
		c0-2.4,0.7-4.3,2.2-5.8c1.5-1.5,3.6-2.2,6.3-2.2c4.7,0,7.1,1.9,7.1,5.7v17.4H264.8L264.8,63.4z M294.8,63.4V36.5h-5.2v2.9
		c-2.5-1.9-5.7-2.9-9.5-2.9c-4.6,0-8.2,1.3-10.9,4c-2.5,2.5-3.8,5.8-3.8,9.8c0,3.9,1.2,7.1,3.7,9.6c2.6,2.7,6.2,4,10.7,4
		c4,0,7.2-1,9.7-3v2.5H294.8L294.8,63.4z M289.7,50.3c0,2.6-0.9,4.8-2.7,6.5c-1.8,1.7-4.1,2.6-7.1,2.6c-3,0-5.3-0.9-6.9-2.6
		c-1.5-1.6-2.3-3.8-2.3-6.4c0-2.7,0.8-4.9,2.3-6.5c1.7-1.8,4-2.7,6.9-2.7c3.2,0,5.6,0.8,7.3,2.5C288.8,45.2,289.7,47.5,289.7,50.3
		L289.7,50.3L289.7,50.3z M339,63.4V46.1c0-3.1-1-5.5-2.9-7.1c-1.9-1.6-4.6-2.4-8.2-2.4c-4.1,0-7.2,1.1-9.2,3.4
		c-2-2.3-4.8-3.4-8.5-3.4c-3,0-5.6,0.7-7.7,2.1v-1.6h-5.2v26.3h5.2V48.8c0-2.2,0.6-4,1.8-5.4c1.3-1.5,3.1-2.3,5.4-2.3
		c2.1,0,3.6,0.4,4.5,1.3c0.9,0.9,1.4,2.3,1.4,4.2v16.8h5.2V47.2c0-1.9,0.6-3.3,1.9-4.5c1.3-1.1,3.1-1.7,5.3-1.7c2,0,3.5,0.4,4.4,1.3
		c0.9,0.9,1.4,2.3,1.4,4.2v16.8H339L339,63.4z"/>
</g>
</svg>
