<?xml version="1.0" encoding="utf-8"?>
<!-- Generator: Adobe Illustrator 18.1.1, SVG Export Plug-In . SVG Version: 6.00 Build 0)  -->
<svg version="1.1" id="Layer_1" xmlns="http://www.w3.org/2000/svg" xmlns:xlink="http://www.w3.org/1999/xlink" x="0px" y="0px"
	 viewBox="0 0 48 48" enable-background="new 0 0 48 48" xml:space="preserve">
<g id="icon_7_" display="none">
	<path display="inline" fill="#666E7A" d="M34.1,28.9h-16c-1.8,0-3.3-1.4-3.4-3.1L9.7,9.6h-4C4.8,9.6,4,8.8,4,7.8s0.8-1.8,1.8-1.8
		h5.3c0.8,0,1.5,0.5,1.7,1.3l5.3,17.7c0,0.2,0.1,0.3,0.1,0.5l15.9-0.1c0-0.2-0.1-0.2,0-0.5l2.9-10.2H23.4c-1,0-1.8-0.8-1.8-1.8
		s0.8-1.8,1.8-1.8h15.9c0.6,0,1.1,0.3,1.4,0.7c0.3,0.3,0.5,1,0.3,1.5l-3.5,12.2C37.3,27.5,35.8,28.9,34.1,28.9z"/>
	<path display="inline" fill="#666E7A" d="M12.9,36.7c-0.5-2.5,1.7-4.6,4.1-4.1c1.4,0.3,2.5,1.4,2.9,2.9c0.5,2.5-1.7,4.6-4.1,4.1
		C14.3,39.2,13.1,38.1,12.9,36.7z"/>
	<path display="inline" fill="#666E7A" d="M32.2,36.7c-0.5-2.5,1.7-4.6,4.1-4.1c1.4,0.3,2.5,1.4,2.7,2.9c0.5,2.5-1.7,4.6-4.1,4.1
		C33.6,39.2,32.5,38.1,32.2,36.7z"/>
</g>
<g id="icon_1_">
	<path fill="#01802A" d="M23.5,25.9c-4.5,0-8.1-3.7-8.1-8.1s3.5-8.1,8.1-8.1s8.1,3.5,8.1,8.1S27.9,25.9,23.5,25.9z M23.5,13
		c-2.7,0-4.8,2.2-4.8,4.8s2.2,4.8,4.8,4.8s4.8-2.2,4.8-4.8S26.1,13,23.5,13z"/>
</g>
<g>
	<path fill="#01802A" d="M36.9,38.2L36.9,38.2c-0.8,0-1.4-0.5-1.6-1.3c-0.6-2.9-3.2-5.3-6.3-5.3H18.3c-3.1,0-5.7,2.2-6.3,5.3
		c-0.2,0.7-0.8,1.3-1.6,1.3l0,0c-1,0-1.8-0.9-1.6-1.9c0.9-4.3,4.8-7.8,9.5-7.8H29c4.7,0,8.6,3.4,9.5,7.8
		C38.7,37.3,37.9,38.2,36.9,38.2z"/>
</g>
</svg>
