<?xml version="1.0" encoding="utf-8"?>
<!-- Generator: Adobe Illustrator 18.1.1, SVG Export Plug-In . SVG Version: 6.00 Build 0)  -->
<svg version="1.1" id="Layer_1" xmlns="http://www.w3.org/2000/svg" xmlns:xlink="http://www.w3.org/1999/xlink" x="0px" y="0px"
	 viewBox="0 0 48 48" enable-background="new 0 0 48 48" xml:space="preserve">
<g id="icon_21_" display="none">
	<path display="inline" fill="#257EBA" d="M23.5,26.1c-5.5,0-9.9-4.3-9.9-9.9s4.3-9.9,9.9-9.9s9.9,4.3,9.9,9.9S29,26.1,23.5,26.1z
		 M23.5,10.2c-3.3,0-5.9,2.7-5.9,5.9s2.7,5.9,5.9,5.9s5.9-2.7,5.9-5.9S26.7,10.2,23.5,10.2z"/>
</g>
<g display="none">
	<path display="inline" fill="#257EBA" d="M40,41L40,41c-0.9,0-1.8-0.6-1.9-1.6c-0.7-3.7-3.9-6.3-7.7-6.3H17.3c-3.8,0-7,2.7-7.7,6.3
		c-0.2,0.9-1,1.6-1.9,1.6l0,0c-1.3,0-2.2-1.1-2.1-2.3c1.1-5.4,5.9-9.5,11.7-9.5h13.1c5.8,0,10.6,4.1,11.7,9.5
		C42.2,39.9,41.1,41,40,41z"/>
</g>
<g id="icon_7_" display="none">
	<path display="inline" fill="#257EBA" d="M35,29.9H19c-1.8,0-3.3-1.4-3.4-3.1l-4.8-16.2h-4C5.8,10.6,5,9.8,5,8.8S5.8,7,6.9,7h5.3
		c0.8,0,1.5,0.5,1.7,1.3l5.3,17.7c0,0.2,0.1,0.3,0.1,0.5l15.9-0.1c0-0.2-0.1-0.2,0-0.5l2.9-10.2H24.5c-1,0-1.8-0.8-1.8-1.8
		s0.8-1.8,1.8-1.8h15.9c0.6,0,1.1,0.3,1.4,0.7c0.2,0.3,0.5,1,0.3,1.5l-3.5,12.2C38.3,28.5,36.8,29.9,35,29.9z"/>
	<path display="inline" fill="#257EBA" d="M13.9,37.7c-0.5-2.5,1.7-4.6,4.1-4.1c1.4,0.3,2.5,1.4,2.7,2.9c0.5,2.5-1.7,4.6-4.1,4.1
		C15.3,40.2,14.1,39,13.9,37.7z"/>
	<path display="inline" fill="#257EBA" d="M33.3,37.7c-0.5-2.5,1.7-4.6,4.1-4.1c1.4,0.3,2.5,1.4,2.7,2.9c0.5,2.5-1.7,4.6-4.1,4.1
		C34.6,40.2,33.5,39,33.3,37.7z"/>
</g>
<path fill="#01802A" stroke="#FFFFFF" stroke-width="0.5" stroke-miterlimit="10" d="M24,38.4c-0.5,0-0.9-0.1-1.3-0.5
	c-0.3-0.3-8.8-6.6-12-10.7C8,23.7,7,19.7,7.8,16.3c0.6-2.6,2.3-4.6,5-5.8c3.8-1.8,8.3-1,11.3,1.8c3-2.7,7.4-3.5,11.3-1.8
	c2.6,1.1,4.3,3.2,5,5.8c0.8,3.3-0.3,7.3-3,10.9c-3.4,4.1-11.8,10.5-12.2,10.7C24.9,38.2,24.5,38.4,24,38.4z M17,13.7
	c-0.8,0-1.7,0.2-2.6,0.6C13,15,12.1,16,11.8,17.4c-0.5,2.1,0.5,4.9,2.3,7.3c2.2,2.7,7.5,7.1,9.9,9c2.4-1.9,7.8-6.2,10.1-9
	c1.9-2.5,2.9-5.3,2.3-7.3c-0.3-1.3-1.3-2.4-2.7-3l0,0c-3.2-1.5-6.4,0.1-7.8,2.3c-0.8,1.1-2.9,1.1-3.5,0C21.3,15,19.3,13.7,17,13.7z"
	/>
</svg>
